<?xml version="1.0" encoding="utf-8"?>
<!-- Generator: Adobe Illustrator 22.1.0, SVG Export Plug-In . SVG Version: 6.00 Build 0)  -->
<svg version="1.1" id="Layer_1" xmlns="http://www.w3.org/2000/svg" xmlns:xlink="http://www.w3.org/1999/xlink" x="0px" y="0px"
	 viewBox="0 0 616.8 362.5" style="enable-background:new 0 0 616.8 362.5;" xml:space="preserve">
<style type="text/css">
	.st0{fill:#FFFFFF;}
</style>
<path class="st0" d="M414.1,52.2c1,5,1.8,9.6,3,14.2c0.7,2.5,4.1,4.2,7.7,3.9c4.8-0.4,9.6-1.1,14.4-1.5c10.4-0.8,20.9-1.7,31.4-2.2
	c5.7-0.3,6.5,0.8,7.2,6.5c0.1,0.7,0.1,1.5,0.2,2.2c0.4,3.8-1,5.3-5.5,4.9c-8.5-0.9-17-2.2-25.5-3.2c-1.6-0.2-3.3-0.1-4.9,0.3
	c-8.8,1.9-17.4,4.6-26.3,5.8c-8.4,1.1-15.5,5.4-23.5,7.2c-1.1,0.3-2.3,0.5-3.4,0.7c-5.5,0.8-8.4-2.6-7-7.9c3-11.8,2.3-23.6,2-35.5
	c-0.2-7.9-3.2-14.9-5.5-22.2c-0.2-0.5-0.4-1.1-0.6-1.6c-0.6-2.7-2.6-5.9-0.5-8.1c2.8-3,6.8-5.1,11-4.3c15.6,3,31.3,2.2,47.1,1.3
	c6.5-0.4,13-0.1,19.5-0.2c2.5-0.1,4.9-0.7,7.4-1c1.7-0.2,3.5-0.7,5.2-0.5c4.9,0.4,8.2,3.7,8.2,7.8c-0.1,5.9-3.1,9.6-8.5,9.8
	c-6.1,0.1-12.1-0.2-18.2-0.5c-9.6-0.5-19.3-1.1-28.9-1.7c-4.5-0.2-5.6,0.9-5.8,5.4c-0.3,6.7,1.1,8.1,7.9,8.4
	c9.9,0.4,19.8,0.8,29.7,1.5c2,0.1,4.2,1.1,5.9,2.3c3.6,2.6,3.4,7.4-0.7,9.3c-2.6,1.2-5.8,1.8-8.6,1.6c-8.5-0.7-17-2.1-25.5-3
	C420.1,51.6,417.4,52.1,414.1,52.2z M407.2,68.7c-0.1-0.7-0.1-1.7-0.3-2.7c-1.4-7.8-2.7-15.5-4.3-23.3c-1-4.7-2.4-9.3-3.7-13.9
	c-0.2-0.6-1.3-1.4-1.8-1.3c-0.6,0.1-1.4,1-1.6,1.7c-0.5,2.2-1.1,4.4-1.2,6.6c-0.3,8.2-0.6,16.5-0.7,24.7c-0.1,3.5,0.3,7,0.5,10.5
	c0.1,1.9,0.6,3.9,2.6,4.8C400.6,77.5,407.1,73.2,407.2,68.7z"/>
<path class="st0" d="M542.5,49.6c0.8,4.4,1.5,8.5,2.4,12.5c0.9,3.7,3.4,5.7,7.3,5.4c4.7-0.3,9.4-0.9,14.2-1.3
	c10.9-0.8,21.7-1.8,32.6-2.3c5.8-0.2,6.9,1.3,7.1,7c0,0.1,0,0.2,0,0.2c0.6,6.2-1,6.8-6.9,6.2c-8-0.9-16-2.3-24-3.1
	c-2.6-0.3-5.3,0.5-7.8,1c-8,1.7-15.8,4-23.9,5.3c-6.1,1-11.7,3-17.3,5.3c-2.7,1.1-5.6,1.7-8.4,2.3c-6.8,1.4-8.8-3.3-7.6-7.9
	c3.5-13.6,2.7-27.3,1.3-41c-0.6-5.4-3.1-10.6-4.7-16c-0.8-2.6-1.5-5.3-1.8-8c-0.1-1,0.7-2.6,1.6-3.2c3.9-2.7,8.1-4,13.2-2.9
	c9.6,2.1,19.3,2,29.1,1.7c11.2-0.4,22.3-0.6,33.5-1c2.8-0.1,5.6-0.8,8.4-1.2c0.5-0.1,1-0.2,1.5-0.3c5.3-1.1,11.2,1.9,11.4,6.2
	c0.5,7.3-2.5,11.2-9.3,11.4c-5.1,0.2-10.2-0.3-15.2-0.6c-10.1-0.6-20.3-1.2-30.4-1.8c-1.3-0.1-2.7,0.1-3.9,0.4
	c-0.7,0.2-1.7,1-1.8,1.5c-0.2,2.9-0.6,6,0,8.8c0.2,1.1,2.6,2.4,4.1,2.5c7.4,0.6,14.8,0.7,22.2,1.1c3.9,0.2,7.9,0.3,11.7,1.1
	c2.2,0.4,4.6,1.7,6.2,3.3c2.3,2.4,1.4,6.5-1.8,8c-2.6,1.2-5.8,1.9-8.6,1.7c-8.5-0.7-16.8-2.1-25.3-3C548.6,49,545.7,49.5,542.5,49.6
	z M521.6,48.7c0.3,7.1,0.6,13.9,0.9,20.7c0.1,2,1.1,3.5,3.1,4c5.2,1.3,10.6-3.8,9.7-9c-1-5.2-1.7-10.5-2.9-15.7
	c-1.6-7.4-1.8-15.1-5.1-22c-0.4-0.8-1.2-1.3-1.8-2c-0.7,0.8-1.8,1.5-1.9,2.3C522.8,34.3,522.2,41.6,521.6,48.7z"/>
<path class="st0" d="M560.9,147.1c9.3,0,18.6-0.1,28,0.1c2,0,4.1,1.2,6,2c3.4,1.6,6.8,3.4,10.2,5c2.7,1.2,4.6,3,5.7,5.6
	c1.9,4.2,3.7,8.5,5.6,12.8c0.2,0.5,0.4,1.1,0.4,1.7c0,6.9,0.1,13.8-0.1,20.7c-0.2,7-3.3,12.7-8.5,17.2c-7.1,6.3-15,11.7-24.8,10.6
	c-9-1-17.2,2-25.9,2.3c-5.7,0.3-11.5,0.3-17.2,0.4c-2.7,0.1-5.4,0.4-8,0.1c-2.2-0.2-4.4-0.8-6.3-1.8c-2.5-1.4-3-3.5-1.9-6.2
	c2.1-4.9,2-10.1,1.7-15.2c-0.3-6.8-0.6-13.6-0.9-20.4c-0.2-6.4-1.2-12.5-4.2-18.3c-3-5.9-0.8-11.7,5.3-14.1c2.3-0.9,5-1.4,7.5-1.5
	c9.1-0.4,18.1-0.6,27.2-0.8C560.9,147.2,560.9,147.1,560.9,147.1z M604.7,188.5c0-4.5-0.6-10.7-3.1-16.5c-2.2-5.1-5.8-8.5-11.5-9.1
	c-1.3-0.1-2.6-0.4-3.9-0.6c-8.3-1.1-16.6-2.4-25-3.4c-5-0.6-6.7,1.2-6.6,6.2c0.1,3.1,0.1,6.1,0.5,9.2c1.2,9.2,2.2,18.5,4,27.6
	c1.2,6.2,5.3,10.7,11.9,11.6c4.6,0.6,9.3,0.6,13.9,0.1C597.1,212.3,605.3,202.5,604.7,188.5z M544.4,216.1c0.5-1.6,1-2.5,1-3.4
	c0.2-5.1,0.6-10.2,0.2-15.2c-1-11.1-2.4-22.2-3.9-33.2c-0.2-1.7-1.7-3.3-2.6-4.9c-0.4,0-0.8,0-1.1,0c-1,1.8-2.8,3.6-2.8,5.4
	c-0.1,6.1,0.2,12.1,0.6,18.2c0.4,6.7,1,13.4,1.7,20.1c0.2,1.9,0.7,3.8,1.6,5.4C540.5,211.1,542.4,213.3,544.4,216.1z"/>
<path class="st0" d="M0.8,69c0.1-0.9,0-2.5,0.3-4.1c0.6-2.5,0.3-4.8-0.8-7.3c-0.5-1.2-0.4-2.9-0.1-4.2c0.8-3.7,1.8-7.2,2.7-10.9
	c1-4.4,3-8.2,6.1-11.5c3.1-3.3,6.2-6.7,9-10.3c7.2-9.3,17.3-13.5,28.3-16c6.4-1.5,12.9-1.1,19.4-0.3c2.7,0.4,4.4,1.9,5.6,4.1
	c1.3,2.3,0.5,4.2-2.1,4.7c-3.5,0.6-7.1,1-10.6,1.5c-6.3,0.9-10.5,4.4-13.1,10C36,45.9,34.2,67.8,41.2,90.2c1.3,4.1,3.4,7.9,5.7,11.6
	c3.1,5,11.1,6.9,17.4,4.4c2.3-0.9,4.5-2.1,6.9-3c4.7-1.8,9.9,0,12.8,4.1c1.1,1.6,1,3.1,0.2,4.7c-1.6,3-3.8,5.4-7.1,6.1
	c-8.2,1.6-16.5,2.9-24.8,4.2c-0.7,0.1-1.6-0.3-2.4-0.6c-5.8-2.6-11.5-5.2-17.3-7.8c-9-4-15.6-10.7-21.1-18.6
	c-1.9-2.7-3.8-5.5-5.6-8.2C2.3,81.6,0.7,76.2,0.8,69z M30.6,28.4c-0.2-0.2-0.4-0.4-0.6-0.5c-1.8,1.3-3.7,2.4-5.4,3.9
	c-5.5,5-8,11.5-9.3,18.6C13.6,60.3,14,70,18.5,79.2c1.1,2.3,2.9,4.4,4.3,6.5c0.8-1.1,1.1-1.9,1.1-2.7c0.3-7.1,0.8-14.1,0.7-21.2
	C24.5,50.3,24.7,38.9,30.6,28.4z"/>
<path class="st0" d="M321.3,166c-0.5,4.4-0.2,8.4,1.6,12.7c2.3,5.3,3.2,11.3,4.5,17c1.6,6.9,3,13.8,4.7,20.6
	c0.9,3.6,0.4,6.8-1.6,9.7c-2.1,3-5.9,3.7-9.7,2c-3.5-1.6-4.7-3.9-4.1-7.8c1.8-10.9,0.5-21.6-2-32.2c-2.3-9.6-4.8-19.2-6.9-28.8
	c-0.6-2.6-0.2-5.5,0.3-8.1c0.5-2.9,2.2-3.7,5.2-3.2c7.4,1.2,13.6,4.9,19.1,9.8c3.8,3.3,7.3,6.8,10.9,10.2c0.6,0.6,1.3,1,2.4,2
	c0-3.1-0.1-5.6,0-8.1c0.1-2.4,0.1-5,0.9-7.2c0.8-2.5,3.2-3.2,5.8-2.9c2.4,0.3,3.4,2,3.7,4.1c0.8,5.8,1.5,11.5,2.3,17.3
	c0.3,2.3,0.7,4.6,1.1,6.9c0.6,3.4,2.6,6.1,5.1,8.4c5.5,4.8,11,9.7,16.7,14.3c1.8,1.4,4.3,2,6.4,3c2.4-4.3,2.1-8.5,1.9-12.6
	c-0.6-10.7-1.4-21.4-2.5-32.1c-0.2-2.2-2-4.3-3.1-6.4c-2.3-4.1-0.9-7.6,3.7-8.9c3.5-1,6.2,0.8,7.2,4.9c3,12.2,5.4,24.4,5.6,37.1
	c0.2,9.3,1.4,18.4,4.2,27.3c1.6,5.1,0.4,8.6-3.2,11.1c-3.8,2.6-8.2,2.1-10.8-1.7c-3.1-4.5-7.1-7.5-12.3-9.3
	c-2.2-0.8-3.9-2.7-5.7-4.3c-1.8-1.6-3.5-3.3-5.4-4.9c-0.5-0.4-1.3-0.5-2-0.7c0.1,0.6,0.1,1.4,0.4,1.9c1.4,2.5,2.8,4.9,4.3,7.3
	c1.8,3,1.4,4.6-1.6,6.3c-0.9,0.5-1.9,1-2.9,1.5c-3.7,1.5-6.3,0.7-8.6-2.5c-3.6-5.1-4.5-11-5.6-16.9c-3.1-17.6-15.4-27.9-29.5-36.6
	C321.8,165.9,321.6,166,321.3,166z"/>
<path class="st0" d="M418.7,143.5c6.5,0.4,13,1,19.5,1c10,0,20-0.5,29.9-0.7c3.1-0.1,6.3-0.1,9.4,0.4c3.5,0.6,4.5,2.3,4.5,6.1
	c0,4.1-1.1,6.3-4.6,6.6c-4.1,0.4-8.3,0.1-12.4-0.1c-4.4-0.3-8.8-1.1-13.2-1.3c-6.8-0.4-10.3,2.7-10.9,8.9
	c-0.6,6.9,2.8,11.9,9.2,12.5c3.2,0.3,6.7,0.1,9.8-0.6c4.2-1,8.1-0.4,11.8,1.4c2.7,1.3,4.5,3.7,4.2,5.4c-0.4,1.7-3.2,3.8-5.8,4.1
	c-6.3,0.7-12.6,1.3-18.9,1.9c-4.4,0.4-5.2,1.8-3.3,5.9c2.7,5.7,5.5,11.4,8.3,17.1c1.2,2.4,3.2,3.5,5.9,2.9c8.5-1.9,17-3.8,25.5-6
	c5-1.3,9.6,0.8,10.4,5.2c0.7,4.1-1.5,7.4-5.6,8c-3,0.4-6,0.4-9,0.5c-11.2,0.5-22.5,0.8-33.7,1.6c-3.6,0.3-7.2,1.9-10.7,3.1
	c-4.5,1.5-9.1,2.6-14,1.8c-3-0.5-4.5-1.9-4.2-4.9c1.4-10.4-1.3-20.6-1.8-30.8c-0.4-9.7-1.5-19.4-2.3-29.1c-0.3-3.2-1.7-5.6-4.6-7.2
	c-4.3-2.2-5.5-4.1-4.8-7.1c1.1-4.3,4.4-6.7,8.8-6.6C417.2,143.4,417.9,143.5,418.7,143.5C418.7,143.5,418.7,143.5,418.7,143.5z
	 M440.5,208.7c-0.2-0.7-0.4-1.4-0.7-2.1c-4.1-8.4-5.6-17.5-6.9-26.7c-0.8-5.7-2-11.4-3.1-17.1c-0.1-0.7-1.1-1.1-1.6-1.7
	c-0.3,0.7-0.8,1.4-0.8,2.1c0.2,8.5,0.4,17,0.7,25.4c0.4,8.9,3.6,17.2,6.9,25.4c0.3,0.7,1.4,1.5,2.2,1.5c0.7,0,1.7-0.9,2-1.6
	C439.8,212.2,440.1,210.5,440.5,208.7z"/>
<path class="st0" d="M335.7,21.6c-7.9-0.7-15.8-1.4-23.6-2c-10.3-0.8-9.8,2.1-9.6,8.9c0.1,3.8,0.3,7.7,0.5,11.5
	c0.2,3.1,1.6,4.5,4.7,4.1c4.2-0.6,8.3-1.5,12.5-2.3c3.7-0.7,7.5-0.9,11,0.7c2.9,1.2,3.3,3.2,0.9,5.1c-2.3,1.8-5,3.4-7.7,4.4
	c-4.3,1.6-8.7,2.7-13.1,4.1c-2,0.6-2.5,1.7-2.1,3.9c0.8,4.3,1.4,8.7,1.8,13.1c0.4,4.9-1.4,7.6-6.1,9.3c-1.9,0.7-3.9,1.3-5.9,2
	c-3.1,1.1-4.9,3.3-5.1,6.7c-0.1,0.8-0.3,1.7-0.2,2.5c0.4,3.3-1.9,6-6.2,5.7c-4.7-0.3-9-2.3-12.1-5.7c-1.5-1.6-2.1-4.4-2.2-6.6
	c-1-17.6-1.7-35.3-2.8-52.9c-0.2-3.5-1.2-7-2-10.5c-1.5-6.9,0.7-12.6,5.1-17.7c1.9-2.2,4.6-2.3,6.9-1.6c14.4,4.6,29.1,2,43.7,2
	c6.6,0,13.3,0.1,19.9,0.5c2,0.1,4.2,1.1,6,2.2c3.7,2.4,3.9,7,0.8,10c-2.1,2-4.6,2.9-7.5,2.9c-2.5,0-5,0-7.5,0
	C335.7,21.7,335.7,21.7,335.7,21.6z M284.7,82.6c6.5-2.8,10.1-8.8,9.4-15.3c-0.3-3.1-0.9-6.1-1.1-9.2c-0.9-11.4-1.7-22.9-2.5-34.3
	c-0.2-3.3-2.3-4.8-5.6-4.4c-3.1,0.4-4.1,1.9-3.5,5.5c0.1,0.5,0.1,1,0.1,1.5c0.3,11.6,0.5,23.3,1.1,34.9
	C282.9,68.3,284,75.3,284.7,82.6z"/>
<path class="st0" d="M185.5,4.3c9.4,0.4,18.8,1.1,28.2,1.1c5.6,0,11.3-1.1,16.9-1.3c3.7-0.1,7.5,0.1,11.1,0.7c4,0.7,6.2,4.6,5.7,8.9
	c-0.4,3.6-3.2,6-7.5,5.8c-5.4-0.3-10.8-0.9-16.2-1.3c-6-0.4-12-0.9-18-1.1c-5.3-0.1-6.5,1.1-6.3,6.3c0.3,7.7,0.8,15.5,1.4,23.2
	c0.3,4,2,5.6,6,5.4c4-0.2,7.9-1,11.9-1.3c2.6-0.2,5.3-0.4,8-0.1c3.2,0.4,5,2.1,5.1,4.3c0.2,2.2-1.8,4.7-4.7,5.5
	c-3.9,1-8,1.8-11.9,2.6c-2.1,0.4-4.3,0.6-6.4,1.1c-3,0.7-4.1,2.4-3.7,5.5c0.7,5.5,1.4,11,2.1,16.6c0.1,1,0.2,2,0.1,3
	c-0.5,5.1-3,7.3-8.1,6.8c-3.6-0.3-6.6-1.2-9.5-4.1c-2.6-2.7-6.8-4-10.3-5.7c-1.2-0.6-2.6-0.6-3.8-1.1c-3.6-1.4-5.1-3.7-4.4-7.4
	c1.1-5.4,1-10.7,0.1-16.1c-0.1-0.6,0-1.2-0.3-1.7c-3.1-7.6-1.5-15.6-2.2-23.4c-0.3-4.1,0.2-8.4-0.2-12.5c-0.2-2.6-1.3-5.2-2.2-7.8
	c-0.3-0.9-1-1.7-1.4-2.7c-1.1-2.7-0.7-5,1.8-6.2c3.2-1.5,6.6-2.5,10.1-3.2c2.7-0.5,5.5-0.1,8.2-0.1C185.5,4.1,185.5,4.2,185.5,4.3z
	 M193.9,80.8c-1.4-21.1-8.7-41.1-6.7-62.7c-2.4,0-4.3-0.1-6.3,0c-3.2,0.2-3.9,1-3.6,4.3c0.5,4.5,1.1,9.1,1.7,13.6
	c1.6,11.5,3.2,23.1,5,34.6C184.9,76,189,78.7,193.9,80.8z"/>
<path class="st0" d="M185,220.5c-4.2-0.3-8.5-0.3-12.7-1c-4.5-0.7-5.4-2-5.6-6.5c-0.1-2.6-0.1-5.2,0.4-7.7c0.3-1.4,1.6-3.1,2.9-3.7
	c4.9-2.3,7.4-5.9,8.1-11.2c1.3-10.7,2.6-21.3,3.8-32c0.7-6,1-12.1,1.5-18.1c0.3-3.4,1.7-5.3,5.1-5.3c6.5-0.1,13.1,0.2,19.6,0.8
	c3.2,0.3,5.2,2.7,6.6,5.6c9.9,19.8,19.8,39.7,29.8,59.5c0.8,1.6,1.6,3.1,2.4,4.7c1,2.2,0.5,4-1.3,5.6c-3.6,3-8.8,3.1-12.4,0.2
	c-1.8-1.5-2.8-3.4-2.4-5.7c0.6-4-0.3-7.6-2-11.1c-1.6-3.3-3.5-6.4-5.2-9.7c-0.8-1.6-2.1-2.1-3.7-1.8c-4.6,0.9-9.2,1.7-13.6,3
	c-4.5,1.2-6.3,4-6.1,8.8c0.3,5.8,0.6,11.6,0.8,17.5c0,1.1,0.1,2.2-0.1,3.2c-0.4,3.2-1.6,4.5-4.9,4.6c-3.7,0.2-7.3,0-11,0
	C185,220.3,185,220.4,185,220.5z M207.7,175.1c1.5-0.3,4.2-0.8,6.8-1.5c2.2-0.6,3.1-2.6,2.1-4.6c-1.9-3.4-3.9-6.7-6-10
	c-1-1.6-2.3-1.5-3,0.3c-1.5,3.9-3,7.9-4.3,11.9C202.5,173.5,204,175.2,207.7,175.1z M193.9,155.9c-0.3,0.2-0.6,0.3-0.8,0.5
	c-1.3,7-2.6,14-4,21.1c1.2,0.2,2.1,0.4,3.3,0.7c0.9-6.9,1.9-13.6,2.7-20.4C195.1,157.2,194.3,156.5,193.9,155.9z M186.8,194.5
	c-0.4,5-0.8,10-1.3,15.2C190.3,205.9,191.1,196.4,186.8,194.5z"/>
<path class="st0" d="M132.4,271c10.7,0.1,20,1.9,28.7,6.2c2.6,1.3,5.4,2.2,8.1,3.3c4.2,1.7,5.6,3.7,4.9,8c-0.7,4.3-0.4,8.4,0.4,12.6
	c2.5,13-4.9,24.9-17.9,28.1c-10,2.5-20.3,2-29.8-2.3c-10.8-4.9-16.4-13.7-17.5-25.4c-0.1-0.7-0.1-1.5,0.2-2.2c3-7.7,6.2-15.4,9-23.2
	c1.1-3.2,3-4.5,6.2-4.7C127.5,271.5,130.5,271.2,132.4,271z M127.1,312.4c1.5,4.1,3.7,7,7.7,7.6c4.8,0.6,9.6,1.1,14.4,1
	c4.1-0.1,7.4-2.2,9.9-6.1C148.4,314,138,313.3,127.1,312.4z M135.5,299c3,6,9.4,6.1,18.1,2C147.5,300.4,141.6,299.7,135.5,299z
	 M150.7,287.4c0.2-0.3,0.4-0.6,0.6-0.9c-0.5-0.5-1-1.2-1.6-1.5c-1.6-0.7-3.2-1.3-4.9-1.7c-1-0.2-2.1-0.1-3.1-0.1
	c0.4,1.2,0.7,2.5,1.4,3.5c0.3,0.5,1.3,0.6,2,0.7C146.9,287.4,148.8,287.4,150.7,287.4z"/>
<path class="st0" d="M116.6,206.4c-0.8-8.5-1-17-2.4-25.3c-1.2-7.3-3-14.5-2.7-22c0.1-3.2,0.4-6.5,0.6-9.7c0.3-3.7-0.8-5.1-4.3-4.2
	c-4.8,1.3-8-1.2-11.3-3.7c-1.6-1.2-1.8-2.7-0.9-4.4c1.3-2.4,3.1-4.3,5.9-5c4.2-1.2,8.2-1.4,12.5,0.3c6.8,2.6,13.9,1.9,21,1.1
	c3.2-0.4,6.4-0.9,9.7-1.1c6.1-0.4,11.5,1.6,16.1,5.6c1.1,0.9,2,3,1.7,4.2c-0.4,1.3-2.1,3-3.5,3.3c-5,1-10.2,1.6-15.3,2
	c-4.4,0.4-4.8,0.4-5.2,4.8c-0.4,4.6-1.2,9.3-1.2,13.9c0,3.4,1.2,6.8,1.8,10.3c1.6,9.3,3.3,18.7,4.9,28c0.3,1.7,0.8,3.4,1.4,5
	c2.5,7-0.1,12-7.3,13.4c-4.8,0.9-9.7,1.4-14.6,1.7c-4.6,0.3-7.2-2.3-7.4-6.8c-0.1-3.7,0-7.5,0-11.2
	C116.2,206.4,116.4,206.4,116.6,206.4z M127.4,184c-0.3,0.1-0.6,0.2-0.9,0.3c0.2,2.7,0.4,5.4,0.6,8.2c0.4,5.1,0.7,10.3,1.1,15.4
	c0.1,0.6,0.6,1.2,1,1.7c0.5-0.5,1.3-0.9,1.4-1.4c0.4-1.2,0.6-2.5,0.5-3.6c-0.8-6.3-1.8-12.5-2.8-18.7
	C128.1,185.2,127.7,184.6,127.4,184z M125.4,151.7c-3.6,6.5-3.5,15.3,0,19.7C125.4,165,125.4,158.6,125.4,151.7z"/>
<path class="st0" d="M59.3,298.5c8.7,0.1,16.6,2.3,23.4,7.9c2.5,2.1,4.4,4.8,5.1,8.1c1.1,5.7,2.5,11.4,3.2,17.1
	c0.5,4.2-0.9,8.2-3.2,11.8c-2,3.1-3.9,6.4-6,9.5c-2.3,3.5-5.5,5.8-9.7,6.5c-6,1.1-11.9,2-17.9,2.9c-0.8,0.1-1.8-0.3-2.4-0.8
	c-6.1-4.7-12.3-9.4-18.2-14.4c-1.9-1.6-3.5-3.8-4.4-6.1c-1.4-3.6,1.3-7.1,5.5-8.2c3.7-0.9,6.5,0.8,7.4,4.7
	c2.3,9.2,13.4,15.8,22.3,13.5c3-0.8,5.7-2.2,7.2-5c2.1-3.8,4.7-7.6,5.8-11.8c3.2-12.1-4.3-21.4-17.4-22.7c-4.7-0.5-9.5-1-14.1-2
	c-11.4-2.5-17.3-13.2-15-22.6c1.6-6.3,2.5-12.7,4.3-18.9c0.9-2.9,2.8-5.7,4.9-7.9c3.6-3.8,7.4-7.5,11.8-10.3c3-1.8,7.1-1.8,10.7-2.7
	c2.5-0.6,4.5,0,6.5,1.9c3.6,3.5,7.7,6.6,11.4,10.1c4.1,3.9,3,9.1-2.1,10.9c-2.5,0.9-5.5-0.5-8-3.4c-1.5-1.7-3.1-3.5-5-4.8
	c-4.6-3.1-10-2.2-13.2,2.4c-4.9,7.1-7.3,15.1-7.9,23.6c-0.3,5.7,5,10.1,11.8,10.6C57.1,298.6,58.2,298.5,59.3,298.5z"/>
<path class="st0" d="M51.4,177.2c8.8,0,16.8,2.2,23.5,8.1c2.4,2.1,4.1,4.8,4.8,8c1,4.6,2.2,9.2,3,13.9c0.9,5.3-0.2,10.3-3.1,14.8
	c-2,3.1-3.8,6.2-5.8,9.3c-2.3,3.6-5.6,5.9-9.8,6.8c-5.4,1-10.8,1.9-16.2,2.9c-1.9,0.3-3.5,0-5.1-1.3c-5.6-4.6-11.4-8.9-17-13.5
	c-1.9-1.6-3.7-3.7-4.7-6c-1.6-3.6,0.8-7.3,4.9-8.6c3.9-1.2,6.9,0.5,7.9,4.6c2.5,9.6,13.7,16.2,22.7,13.3c2.4-0.8,4.7-2.5,6.4-4.4
	c3.2-3.7,5.5-8,6.4-12.8c2.4-12.2-4.7-20.8-17.9-22.1c-4.7-0.5-9.5-1-14.1-2.1c-8.6-2-14.9-8.9-15.1-17.1c-0.1-4.7,1.1-9.4,1.8-14.1
	c0.3-1.9,0.8-3.7,1.2-5.6c1.4-6.3,4.5-11.6,9.5-15.7c0.5-0.4,1-0.8,1.5-1.4c5.3-6.8,12.8-8.5,20.8-8.8c0.7,0,1.5,0.3,2,0.7
	c4.4,3.8,9,7.5,13.2,11.5c4.2,4.1,2.9,9.7-2.5,11.1c-3.5,0.9-5.5-1.5-7.7-3.6c-1.5-1.5-2.9-3.3-4.6-4.5c-4.9-3.3-10.5-2.3-13.8,2.6
	c-4.6,6.9-6.9,14.8-7.6,23c-0.4,5.6,4.4,10.1,11.2,10.9C48.7,177.2,50.1,177.1,51.4,177.2z"/>
<path class="st0" d="M120.7,59.6c-3.7-0.7-8.7-1-13.3-2.7c-12.3-4.4-19-13.5-20.3-26.5c-0.1-0.7,0-1.5,0.2-2.2
	c3-7.6,6.1-15.2,8.9-22.9c1.2-3.3,3.2-4.5,6.6-4.9c13.5-1.4,26.4,0.3,38.5,6.8c2.2,1.2,4.7,1.7,6.9,2.8c3.2,1.4,4.3,3.3,3.8,6.7
	c-0.7,4.6-0.4,9,0.4,13.6c2.5,14.4-7,26.9-21.6,28.7C127.8,59.4,124.8,59.4,120.7,59.6z M122.7,29.8
	C122.7,29.8,122.7,29.8,122.7,29.8c6.1,0.1,12.3,0,18.4,0.1c2,0,2.4-0.9,2.4-2.6c0-1.8-0.7-2.2-2.4-2.3c-7.7-0.2-15.4-0.6-23.2-0.9
	c-5.4-0.2-10.8-0.4-16.2-0.5c-0.9,0-2.7,0.9-2.7,1.4c0.1,1.3,0.5,3,1.4,3.8c0.8,0.8,2.5,0.9,3.7,0.9
	C110.4,29.8,116.5,29.8,122.7,29.8z M105.5,37.3c0.1,4.1,1.3,5.7,4.8,6.9c7.3,2.4,14.6,1.6,21.8-0.7c2-0.7,3.3-2.4,3.6-5.4
	C125.6,37.9,115.6,37.6,105.5,37.3z M120.7,11.2c-1.3-1.8-3.1-2-4.9-1.6c-0.7,0.1-1.3,0.8-1.9,1.3c0.6,0.7,1.1,1.8,1.8,2
	C117.5,13.4,119.3,13,120.7,11.2z"/>
<path class="st0" d="M334.5,335c12.8,1.4,25.6-0.4,38.4-1c3.3-0.1,4.1,0.5,5.3,3.7c0.8,2.1,0,3.8-1.2,5.3c-2.5,3.2-8.4,5.7-13,3.8
	c-7.7-3.1-15.4-1.8-23,0.6c-3,0.9-6.1,1.8-9,3c-2.3,1-4.6,0.7-6.4-0.5c-4.9-3.4-9.8-3-14.9-0.9c-3.7,1.5-7.1,3.5-11.4,3.2
	c-4.4-0.3-5.9-1.3-6.1-5.7c-0.2-3.4-0.1-6.9,0.6-10.2c2.3-9.7,1.7-19.5,1-29.3c-0.4-5.4-1.5-10.5-3.4-15.5c-1.8-4.7-0.4-7.7,4-10.1
	c1.3-0.7,2.6-1.5,3.8-2.4c3.6-2.7,7.7-3.1,11.9-2.2c3.5,0.8,6.9,1.9,10.3,3c3.7,1.2,5.1,4.2,3.5,7.7c-4.5,10-4.6,20.3-2.8,30.8
	c0.6,3.4,0.7,7,1,10.4c0.5,4.8,2.2,6.4,7.1,6.3C331.7,335,333.1,335,334.5,335z M308.2,292c-2.8,2.2-4.2,4.5-3.6,7.7
	c0.4,2,0.3,4.1,0.4,6.2c0.5,8.9,1,17.8,1.6,26.7c0.1,0.9,0.5,1.7,0.8,2.6c0.3-0.1,0.6-0.1,1-0.2c0.2-1.8,0.6-3.5,0.7-5.3
	c0.2-10.5,0.5-21,0.5-31.5C309.6,296.3,308.8,294.3,308.2,292z"/>
<path class="st0" d="M207.1,293.7c-0.8,6.2,1,12.1,2.5,17.9c1.3,5.2,2.9,10.4,4.6,15.6c2.1,6.5,6.4,9.4,13.1,8.2
	c3.6-0.6,7.2-2,10.5-3.7c5-2.6,6.4-6.6,5.7-12.2c-0.4-2.9,0-5.9-0.1-8.9c0-1.7-0.2-3.5-0.4-5.2c-0.3-3.7-0.4-7.3-0.8-11
	c-0.6-6.2,1.7-9.9,7.7-11.6c3.1-0.9,6.2-1.7,9.4-2.5c7-1.6,11.9,2.4,11.7,9.6c-0.1,2.1-0.5,4.1-0.6,6.2c-0.1,2.5-0.3,5,0.1,7.4
	c0.7,4.2-0.1,8.1-1.2,12c-1.4,4.7-2,9.4-1.5,14.3c0.2,2.4,0.1,4.8-0.2,7.2c-0.6,3.7-2.9,5.7-6.6,5.5c-4.5-0.2-8.9-1.1-13.4-1.6
	c-6.3-0.7-12.3,0.4-18,2.9c-3.6,1.6-7.3,3-11.3,2.5c-7.9-0.9-13.2-5.4-15.2-12.9c-3.1-11.5-5.7-23.2-8.3-34.9
	c-0.6-2.9-0.7-6-0.8-8.9c-0.2-3.8,2.3-6.6,6.1-7.1c5-0.6,7.2,1.4,7.2,6.4C207.3,290.5,207.2,292.1,207.1,293.7z M255.7,318.5
	c5.8-4.6,4.9-21.9-1.8-24.7C254.5,302,255.1,310.1,255.7,318.5z"/>
<path class="st0" d="M244.4,137.4c10.8,0.4,21.6,0.8,32.4,1.2c0.8,0,1.7,0.2,2.5,0.4c5.2,1,7.1,3.4,5.7,8.4
	c-2.1,7.4-1.4,14.6,0.7,21.9c1.5,5.4,2.9,10.9,4.4,16.4c1.7,6.2,4.5,11.9,7.6,17.5c3.3,6,2.5,7.2-3.9,10.1c-2.6,1.2-5,0.7-7.2-0.1
	c-4.9-1.8-9.3-0.8-13.7,1.3c-1.9,0.9-3.9,1.6-5.9,2c-4.9,1-9.2-2.3-9.6-7.3c-0.1-1.9,0.2-3.8,0.5-5.7c1.5-7.5,0.7-14.9-0.6-22.3
	c-1.3-7.2-2.5-14.4-3.8-21.6c-1.1-5.9-4.4-8.9-10.3-10c-1.8-0.3-3.6-0.7-5.2-1.5c-4.1-2-4.5-6.7-0.6-9.2c2-1.3,4.6-1.7,6.9-2.5
	C244.3,136.7,244.3,137,244.4,137.4z M268.8,151.1c-4.3,0-4.8,0.5-4.2,4.8c0.2,1.4,0.3,2.8,0.4,4.2c0.4,5.9,0.4,11.9,1.3,17.8
	c1,6.7,2.6,13.4,4,20c1,4.7,3.6,5.9,9.4,4.7c3.8-0.8,5.3-3.1,4.4-7.5c-2.7-13.1-5.5-26.2-8.4-39.2
	C274.8,152.1,273.4,151.1,268.8,151.1z"/>
</svg>
