<?xml version="1.0" encoding="utf-8"?>
<!-- Generator: Adobe Illustrator 22.1.0, SVG Export Plug-In . SVG Version: 6.00 Build 0)  -->
<svg version="1.1" id="Layer_1" xmlns="http://www.w3.org/2000/svg" xmlns:xlink="http://www.w3.org/1999/xlink" x="0px" y="0px"
	 viewBox="0 0 2188.7 972.5" style="enable-background:new 0 0 2188.7 972.5;" xml:space="preserve">
<style type="text/css">
	.st0{fill:#FFFFFF;}
</style>
<path class="st0" d="M1726.5,207.7c0,10.8-0.3,20.1,0.1,29.4c0.5,11.7,1.6,23.3,2.2,35c0.7,14.7,1.1,29.4,1.8,44.1
	c1.2,23.1,2.5,46.2,3.7,69.2c0.5,9.6,1,19.1,1.5,28.7c1.1,26.1,2.1,52.3,3.2,78.4c0.9,21.9,1.9,43.9,2.8,65.8
	c0.9,20.5,1.8,41.1,2.7,61.6c1,23.8,2,47.6,2.9,71.4c0.9,24.5,1.8,49,2.7,73.5c1,25.9,1.9,51.8,2.9,77.7c1,27.1,1.9,54.2,2.8,81.2
	c0.4,12.6,1,25.2,1.2,37.8c0.2,8.3-0.9,9.2-9.2,9.4c-12.4,0.4-24.7,0.8-37.1,1.4c-5.9,0.3-9.6-1.8-11.7-7.6
	c-4.5-12.3-9.7-24.3-14.1-36.6c-1.5-4.3-2.2-9.1-2.4-13.7c-1.2-24.7-2-49.5-3.1-74.2c-0.5-11.7-2.7-22.9-7.7-33.8
	c-10.7-23.4-20.6-47.1-30.2-70.9c-2.7-6.7-6.3-8.9-13.5-8.9c-143.5-0.3-287-1.1-430.5-1.2c-199.4-0.2-398.8,0.1-598.2,0.1
	c-1.2,0-2.4,0.1-3.5,0c-4.9-0.6-7.7,1.8-10.1,5.8c-7.2,12-14.6,24-22,35.8c-10.5,16.8-21.1,33.7-31.8,50.4c-3.3,5.1-5,10.2-5.1,16.4
	c-0.6,25.7-1.6,51.4-2.7,77c-0.2,4.1-1,8.5-2.8,12.1c-6.4,12.7-13.4,25.2-20,37.8c-2.2,4.2-5.6,5.9-10.3,5.8
	c-12.4-0.1-24.8,0.1-37.2,0c-7.1-0.1-8.3-1.3-8.3-8.1c0-36.7,0-73.4,0.3-110.1c0.1-13.3,0.8-26.6,1-39.9
	c0.6-36.2,1.1-72.4,1.7-108.6c0.4-20.8,0.9-41.6,1.4-62.4c0.5-22.9,0.9-45.8,1.4-68.7c0.4-19.4,0.8-38.8,1.4-58.1
	c0.9-30.6,1.4-61.2,2.9-91.7c2.3-45.5,2.4-91.1,2.7-136.6c0.1-18.7,0.8-37.4,1.2-56.1c0-1.9,0.1-3.7,0-5.6c-0.2-6.4-0.8-7.2-7.5-7.1
	c-17,0.3-34.1,1-51.1,1.2c-24.8,0.3-49.6,0.2-74.3,0.4c-41.8,0.4-83.6,0.9-125.5,1.4c-38.3,0.5-76.6,0.9-115,1.4
	c-21,0.3-42,0.8-63.1,1.2c-2.1,0-4.2,0-6.3-0.1c-4-0.1-6.5-2.1-7.5-6.1c-2.9-12.3-6-24.5-8.8-36.8c-1.2-5.2,0.7-9,5.6-11.6
	c3.1-1.6,6.5-2.6,9.7-3.9c52.6-20.7,105.2-41.5,158-61.9c68.9-26.6,137.9-52.8,206.8-79.4c10-3.9,20-5.5,30.7-5.5
	c32.7-0.2,65.4-0.9,98.1-1.4c25.9-0.4,51.9-0.9,77.8-1.4c24.1-0.4,48.1-0.9,72.2-1.4c24.5-0.5,49-1,73.6-1.4
	c30.1-0.5,60.3-1,90.4-1.4c33.9-0.5,67.8-1,101.6-1.4c50-0.5,100-1,150-1.5c49.5-0.5,99.1-1.1,148.6-1.4
	c144.7-0.6,289.3-0.9,434-1.5c58-0.2,115.9-0.7,173.9-1.2c7-0.1,13.3,1.5,19.6,4.3c21.3,9.7,42.7,19.1,64.1,28.5
	c29.9,13.2,59.9,26.3,89.9,39.4c41.8,18.2,83.6,36.3,125.4,54.5c15,6.5,30,13,45,19.6c2.6,1.1,5.1,2.3,7.5,3.7
	c4.5,2.6,6.7,6.5,5.7,11.7c-2.6,12.6-5.1,25.2-8,37.7c-1.4,5.9-3.2,7-9.4,7.2c-0.7,0-1.4,0-2.1,0c-83.2,0.4-166.4,0.8-249.6,1
	c-61,0.2-122,0-183,0C1733.1,207.7,1729.9,207.7,1726.5,207.7z M1479.9,208c-4.3,0-6.8,0-9.4,0c-24.3,0.4-48.6,1-72.9,1.1
	c-20.8,0.1-41.6-0.8-62.4-0.8c-25.2,0-50.5,0.7-75.7,0.9c-76.6,0.5-153.3,1-229.9,1.4c-80.2,0.5-160.3,1-240.5,1.4
	c-19.4,0.1-38.8,0.2-58.2,0.3c-2.4,0-4.9,0.2-8.4,0.4c1.9,3.1,3,5.1,4.2,6.9c44.9,67.2,89.8,134.5,134.9,201.7
	c30.5,45.4,61.1,90.7,91.7,136.1c20.4,30.2,41,60.3,61.2,90.7c3.6,5.4,7.6,7.1,13.8,7.1c51.7-0.2,103.3-0.1,155-0.2
	c1.4,0,2.8-0.1,4.2,0c3.7,0.3,6-1.4,7.9-4.6c4.7-7.8,9.8-15.4,14.7-23.1c27.4-42.7,54.6-85.4,82.1-128
	c42.2-65.4,84.6-130.7,126.8-196c17.9-27.7,35.7-55.4,53.5-83.1C1474.8,216.6,1476.9,213,1479.9,208z M1590,655
	c0-5.2,0.1-8.9,0-12.6c-0.4-25-0.9-50-1.4-74.9c-0.5-25.7-1-51.4-1.4-77.1c-0.5-25.2-0.9-50.4-1.4-75.7c-0.5-29.2-1.1-58.4-1.5-87.6
	c-0.6-37.1-1-74.3-1.6-111.4c-0.1-7.3-0.6-7.7-8.2-7.8c-6.8,0-13.6,0.3-20.3,0c-5.3-0.3-8.5,1.9-11.4,6.3
	c-38.3,58.4-76.9,116.7-115.3,175c-36.6,55.6-73,111.4-109.5,167.1c-20.1,30.7-40.3,61.3-60.4,92c-1.1,1.7-1.9,3.5-3.7,6.6
	C1366.7,654.5,1478.2,655.4,1590,655z M950.3,653.4c-2-3.4-3.1-5.4-4.3-7.3c-10.1-14.9-20.3-29.7-30.5-44.5c-26-38-52-76-77.9-114.1
	c-31.4-46.2-62.5-92.6-94-138.7c-28.9-42.3-58.1-84.3-87.2-126.4c-1.6-2.3-3.1-4.7-5.1-6.7c-3.5-3.4-8.1-4-12.4-2.8
	c-4.1,1.2-2.7,5.5-2.6,8.6c0.3,15.2,0.9,30.3,1.3,45.5c1,34.6,1.9,69.1,2.9,103.7c0.3,11.9,0.9,23.8,1.2,35.7
	c1,31,1.9,62.1,2.9,93.1c0.4,14.5,0.9,28.9,1.3,43.4c1,32.9,2,65.8,2.8,98.8c0.3,12.9-0.1,12.1,12.5,12.1c93.3,0,186.5,0,279.8,0
	C943.6,653.9,946.1,653.6,950.3,653.4z M531.7,675.2c3.7-5.5,7-9.7,9.5-14.3c2.5-4.5,5.9-6.2,10.9-5.9c5.1,0.3,10.3,0.1,15.4,0.2
	c3.2,0.1,6-0.8,8-3.5c2.7-3.8,5.5-7.5,8.1-11.5c0.8-1.3,1.2-3.1,1.2-4.6c-0.2-8.4-0.5-16.8-0.9-25.2c-1.2-23.3-2.6-46.6-3.7-69.9
	c-0.7-14.5-1.1-28.9-1.7-43.4c-0.4-10.7-0.9-21.5-1.5-32.2c-1.2-23.8-2.6-47.6-3.8-71.3c-0.7-15.2-1.1-30.3-1.7-45.5
	c-0.4-10.7-1-21.5-1.5-32.2c-1.3-26.1-2.6-52.2-3.9-78.3c-0.3-5.6-0.6-11.2-1.2-16.8c-0.7-6.8-1-7-7.6-7.1c-1.4,0-2.8,0.1-4.2,0.1
	c-3.5,0-4.9,1.9-5.1,5.3c-0.2,4.2-0.8,8.4-1,12.6c-1,31.3-2,62.6-3,93.8c-0.4,12.6-0.8,25.2-1.3,37.8c-1,27.1-1.9,54.1-2.9,81.2
	c-0.8,22.4-1.8,44.8-2.7,67.2c-1,26.8-2,53.7-3,80.5c-0.6,18.2-1.1,36.4-1.7,54.6c-0.1,2.1-0.6,4.2-0.6,6.3
	C531.6,659.9,531.7,666.8,531.7,675.2z M1650.9,333.1c-0.2,0.1-0.5,0.2-0.7,0.3c0,2.1,0,4.2,0,6.3c0,98.6,0.1,197.1,0.1,295.7
	c0,1.9-0.3,3.8,0.1,5.6c0.7,3.4,1.5,6.9,2.9,10c1.7,4,7,5.4,12.8,3.9c4.7-1.2,3.4-5,3.2-8.1c-0.6-10.9-1.6-21.9-2.2-32.8
	c-1.5-25.2-2.9-50.3-4.3-75.5c-1.1-20.5-2-41-3.1-61.5c-0.5-8.6-1.1-17.2-1.6-25.9c-1.3-19.8-2.6-39.6-3.8-59.4
	c-0.7-12.1-1.1-24.2-1.8-36.4C1652.2,348,1651.5,340.6,1650.9,333.1z"/>
</svg>
