<svg id="Layer_1" data-name="Layer 1" xmlns="http://www.w3.org/2000/svg" viewBox="0 0 2188.72 972.45"><title>Artboard 1</title><path d="M1726.49,207.73c0,10.76-.28,20.08.08,29.37.45,11.66,1.57,23.3,2.15,35,.73,14.69,1.09,29.41,1.82,44.11,1.16,23.08,2.51,46.16,3.75,69.24.52,9.56,1,19.12,1.45,28.69,1.12,26.14,2.15,52.27,3.24,78.41q1.38,32.9,2.84,65.8c.9,20.53,1.84,41.06,2.71,61.59q1.5,35.72,2.89,71.41c.95,24.51,1.81,49,2.72,73.53q1.42,38.83,2.87,77.69,1.44,40.62,2.8,81.23c.44,12.6,1,25.21,1.21,37.82.17,8.27-.94,9.16-9.22,9.44-12.37.42-24.75.78-37.11,1.4-5.92.3-9.55-1.77-11.67-7.61-4.46-12.3-9.68-24.32-14.12-36.63a47.81,47.81,0,0,1-2.4-13.68c-1.18-24.72-2-49.46-3.13-74.19-.53-11.69-2.71-22.86-7.72-33.79-10.71-23.36-20.56-47.13-30.24-70.94-2.72-6.67-6.35-8.9-13.54-8.91-143.51-.28-287-1.1-430.52-1.24q-299.07-.31-598.16.12a29.35,29.35,0,0,1-3.51,0c-4.87-.6-7.7,1.81-10.11,5.84-7.17,12-14.58,24-22,35.84-10.54,16.84-21.09,33.67-31.84,50.37A30.4,30.4,0,0,0,526.6,834q-.95,38.52-2.66,77a30.51,30.51,0,0,1-2.84,12.13c-6.39,12.73-13.39,25.15-20,37.76-2.24,4.24-5.56,5.87-10.25,5.83-12.39-.12-24.78.07-37.17,0-7.05,0-8.34-1.26-8.34-8.12q0-55,.26-110.1c.08-13.3.79-26.61,1-39.92.62-36.21,1.09-72.42,1.71-108.64.36-20.78.93-41.57,1.37-62.35.49-22.89.92-45.78,1.42-68.67.42-19.39.83-38.77,1.38-58.15.88-30.59,1.38-61.19,2.94-91.75,2.32-45.53,2.41-91.08,2.71-136.63.12-18.69.78-37.37,1.19-56.06,0-1.87.06-3.74,0-5.61-.18-6.41-.8-7.2-7.46-7.08-17.05.29-34.1,1-51.15,1.17-24.77.28-49.55.17-74.33.41q-62.73.59-125.47,1.41-57.48.69-115,1.44c-21,.3-42,.83-63.06,1.24-2.1,0-4.21,0-6.31-.05-4-.13-6.54-2.06-7.48-6-2.91-12.28-6-24.52-8.75-36.83-1.18-5.23.72-9,5.61-11.62,3.07-1.64,6.48-2.64,9.74-3.92,52.65-20.66,105.21-41.54,158-61.93,68.88-26.63,138-52.76,206.83-79.41a84.49,84.49,0,0,1,30.7-5.54c32.71-.18,65.42-.88,98.12-1.41q38.9-.64,77.79-1.37,36.09-.66,72.17-1.4c24.53-.47,49-1,73.58-1.4q45.2-.77,90.4-1.42,50.82-.74,101.63-1.36,75-.83,150-1.46c49.54-.48,99.08-1.15,148.61-1.36q217-.89,434-1.49Q1744.45.89,1831.37,0A45.09,45.09,0,0,1,1851,4.34c21.27,9.69,42.67,19.07,64.06,28.48q44.91,19.78,89.87,39.42,62.65,27.33,125.37,54.5,22.5,9.78,45,19.56a75.41,75.41,0,0,1,7.54,3.73c4.49,2.59,6.72,6.47,5.65,11.73-2.57,12.58-5.1,25.18-8,37.71-1.35,5.93-3.17,7-9.44,7.25-.7,0-1.4,0-2.1,0q-124.8.53-249.6,1c-61,.16-122,0-183,0Zm-246.64.22c-4.27,0-6.82,0-9.36,0-24.29.37-48.58,1-72.87,1.07-20.78.05-41.57-.83-62.35-.81-25.23,0-50.45.71-75.68.89q-115,.81-229.93,1.43-120.23.74-240.45,1.42c-19.4.12-38.8.19-58.19.31-2.45,0-4.89.21-8.37.36,1.86,3.06,3,5.05,4.24,6.94q67.4,100.85,134.85,201.66,45.68,68.13,91.66,136.07c20.39,30.22,41,60.29,61.15,90.67,3.6,5.41,7.62,7.1,13.83,7.08,51.65-.21,103.3-.15,154.95-.16,1.4,0,2.81-.1,4.21,0,3.69.26,6-1.43,7.94-4.57,4.74-7.77,9.77-15.38,14.69-23q41.05-64,82.13-128,63.29-98.08,126.81-196,26.84-41.51,53.49-83.12C1474.84,216.6,1476.85,213,1479.85,208ZM1590,655c0-5.25.06-9,0-12.65q-.66-37.47-1.38-74.95-.71-38.52-1.42-77.05-.7-37.83-1.38-75.65-.76-43.79-1.5-87.57-.86-55.69-1.61-111.4c-.11-7.3-.59-7.73-8.23-7.76-6.78,0-13.57.35-20.32,0-5.35-.29-8.53,1.86-11.41,6.25q-57.49,87.59-115.26,175Q1372.59,472.64,1318,556.24q-30.17,46-60.35,92c-1.1,1.67-1.95,3.5-3.68,6.65C1366.7,654.53,1478.15,655.35,1590,655Zm-639.65-1.59c-2-3.41-3.08-5.43-4.35-7.29q-15.22-22.29-30.5-44.54-39-57-77.89-114c-31.39-46.2-62.48-92.6-94-138.72-28.87-42.26-58.11-84.26-87.2-126.37a43.42,43.42,0,0,0-5.1-6.67,12.47,12.47,0,0,0-12.44-2.81c-4.13,1.18-2.68,5.51-2.62,8.55.3,15.18.86,30.35,1.29,45.52q1.47,51.84,2.93,103.67c.35,11.9.86,23.8,1.23,35.71q1.47,46.56,2.88,93.14.67,21.72,1.34,43.42c1,32.92,2,65.83,2.84,98.75.33,12.89-.11,12.14,12.55,12.15q139.88.06,279.77,0C943.59,653.85,946.09,653.6,950.33,653.37ZM531.7,675.22c3.73-5.54,7-9.75,9.53-14.33s5.9-6.19,10.87-5.91c5.13.29,10.28.11,15.42.2,3.22.05,6-.77,8-3.49,2.73-3.78,5.54-7.53,8.06-11.46a8.57,8.57,0,0,0,1.16-4.62c-.21-8.41-.51-16.81-1-25.21-1.22-23.31-2.6-46.62-3.75-69.93-.72-14.46-1.11-28.94-1.71-43.4q-.68-16.11-1.51-32.19c-1.24-23.78-2.61-47.55-3.76-71.34-.73-15.16-1.12-30.34-1.74-45.5-.43-10.74-1-21.46-1.53-32.19q-1.95-39.18-3.94-78.35c-.28-5.59-.62-11.19-1.16-16.76-.66-6.82-1-7-7.57-7.11-1.41,0-2.81.08-4.21.07-3.53,0-4.93,1.91-5.1,5.27-.21,4.2-.83,8.38-1,12.57q-1.54,46.92-3,93.84-.6,18.9-1.3,37.8-1.44,40.6-2.93,81.21c-.84,22.4-1.8,44.8-2.65,67.19q-1.53,40.26-3,80.52c-.64,18.2-1.13,36.41-1.73,54.62-.07,2.1-.58,4.18-.6,6.27C531.65,659.88,531.7,666.77,531.7,675.22ZM1650.94,333.14l-.71.27v6.27q.07,147.84.14,295.69a27.36,27.36,0,0,0,.14,5.59,52.91,52.91,0,0,0,2.85,10c1.75,4,7.05,5.4,12.84,3.87,4.7-1.25,3.37-5,3.2-8.07-.64-10.94-1.59-21.87-2.24-32.81q-2.23-37.72-4.28-75.47c-1.11-20.5-2-41-3.11-61.52-.45-8.62-1.06-17.24-1.61-25.85-1.27-19.79-2.61-39.58-3.78-59.37-.72-12.11-1.11-24.24-1.78-36.36C1652.18,348,1651.5,340.56,1650.94,333.14Z"/></svg>