<?xml version="1.0" encoding="utf-8"?>
<!-- Generator: Adobe Illustrator 22.1.0, SVG Export Plug-In . SVG Version: 6.00 Build 0)  -->
<svg version="1.1" id="Layer_1" xmlns="http://www.w3.org/2000/svg" xmlns:xlink="http://www.w3.org/1999/xlink" x="0px" y="0px"
	 viewBox="0 0 1920 1080" style="enable-background:new 0 0 1920 1080;" xml:space="preserve">
<style type="text/css">
	.st0{fill:#FFFFFF;}
</style>
<path class="st0" d="M767.7,202.5c16.7,0.5,33.5,1.1,50.2,1.4c14,0.2,28,0.3,42,0c7-0.2,14.1-1.4,21.1-1.9c7.5-0.6,15-1.1,22.4-1.4
	c22.4-0.7,44.8-1.3,67.2-1.8c1.8,0,3.7,0,5.4,0.5c5.8,1.9,11.8,2.7,17.9,3.1c13.3,0.8,26.6,2.1,39.9,2.6c13.1,0.4,26.3,0.1,39.5-0.1
	c14.7-0.2,29.3,0.2,43.8,2.5c16,2.5,32.1,4.8,48.1,7.2c9.1,1.4,17.9,3.7,26.7,6.3c12.5,3.8,25.2,6.8,37.8,10.1
	c3.8,1,7.6,2.2,11.5,3.2c1.7,0.4,3.5,0.6,5.2,0.4c1.6-0.2,3.4-0.8,4.7-1.8c3.4-2.7,6.9-3.8,11.2-2.8c4.5,1,8,2.3,10,7.6
	c3.3,8.7,0.5,16-9.5,19c-4.2,1.3-8.3,2.8-12.3,4.5c-4.1,1.8-6.7,8.1-4.7,12c5.1,9.8,12,17.9,23.4,20.7c5.4,1.3,11,1.9,16.5,2.7
	c3.2,0.5,6.4,0.9,9.6,1.5c2.8,0.6,5.2,1.7,5.8,5.2c0.5,3.4,3.3,5.1,6.4,6c17.7,5.4,34,14,49.4,24.2c7.2,4.8,14,10.1,21,15.3
	c2.7,2,5.4,3.2,8.9,3.3c8.5,0.3,14.9,5.1,21,10.4c18.3,16.2,32.9,35.4,46.1,55.9c7.2,11.2,13.3,22.6,16.2,35.7
	c2,9.2,6.2,17.6,11.9,25.1c6.5,8.7,9.7,18.7,11.3,29.3c3.1,20,8.1,39.6,13.5,59c4.5,16,3.4,31.8-2.3,47.1
	c-4.4,11.8-10,23.2-14.8,34.9c-5.2,12.7-13.9,22.8-22.8,32.8c-8.2,9.1-16.1,18.4-24.3,27.5c-1.2,1.4-3.1,2.2-4.8,3.1
	c-22.8,11.7-45.5,23.6-68.4,35c-8.9,4.4-18.2,8.3-27.5,11.7c-7.6,2.7-15.5,4.2-23.3,6.3c-4,1.1-8,2.3-12,3.3
	c-1.2,0.3-2.5,0.3-3.7,0.2c-7.1-0.9-13.3,1.3-19.1,5.1c-5.6,3.6-11.1,7.3-16.6,11.1c-7.5,5.1-10.5,12.6-11.7,21.2
	c-1.6,11.1-2.6,22.3-4.6,33.4c-2.2,12.4-7.3,23.5-15.1,33.6c-7.7,10-17.8,14.9-30.2,14.6c-9.3-0.2-18.6-1-27.9-1.6
	c-1.2-0.1-2.3-0.2-3.5-0.3c-4.1-0.3-7.8-1.2-11.3-3.9c-8.3-6.5-18.2-7.9-28.4-7.3c-41.8,2.4-83.6,3.3-125.4,3.2
	c-18.9,0-37.8-0.2-56.7,0.1c-13.7,0.2-27.5,0.8-41.2,1.6c-4.4,0.2-8.8,1.4-13.2,2.2c-0.8,0.1-1.7,0.2-2.4-0.1
	c-8.2-3-16.7-3.7-25.3-3.5c-11.3,0.3-22.6-0.1-33.9-0.9c-9.3-0.7-18.7,0.3-28,0.2c-22.2-0.4-44.3-0.8-66.4-1.8
	c-23.7-1.1-47.4-3.1-71-4.5c-16.5-0.9-33.1-1.4-49.7-2.2c-12.1-0.6-24.1-1.4-36.1-2.3c-11-0.8-22.1-2-33.1-3
	c-12.5-1.2-24.5-4.7-36.3-8.7c-6.8-2.3-13.6-4.6-20.4-6.8c-3-1-5.1-2.3-5.5-6.1c-0.6-5.7-4.1-10.3-7.1-15c-4-6.2-5.9-12.8-6.4-20.4
	c-0.6-10-2.8-19.9-4.3-29.8c-1.8-11.8-3.8-23.7-5.3-35.5c-1.3-10-2.7-20-3-30c-0.3-9.3,0.2-18.7,1.2-27.9
	c2.1-19.5,4.2-39.1,5.3-58.7c0.7-12.8,1.9-25.6,2.8-38.4c1.1-15.2,2.1-30.4,3.2-45.6c1-12.9,2-25.7,3.2-38.6
	c1.5-15.4,3.1-30.8,4.8-46.2c1.6-14.6,3.6-29.1,5.2-43.6c1.7-15.1,3.4-30.3,4.7-45.5c1.3-14.5,2.5-29,3.2-43.6
	c0.6-12.2,1.4-24.6-2.3-36.5c-2.2-7-5-13.7-8.1-20.4c-3.8-8.4-3.8-16.7-0.2-24.9c3.3-7.5,9.8-11.5,17.4-12.9
	c14.1-2.7,28.4-4.7,42.7-6.7c10.8-1.5,21.6-2.7,32.5-4c9.9-1.1,19.9-1.6,29.8-3.2c8.6-1.4,17.1-3.6,25.3-6.5
	c12.2-4.3,24.6-6.6,37.4-7.2c10.9-0.5,21.8-1.3,32.7-1.1c18.9,0.3,37.8,1.1,56.7,1.7c2.4,0.1,4.8,0,7.2,0
	C767.7,202.4,767.7,202.5,767.7,202.5z M1238.9,481c-0.1,0-0.1,0-0.2,0c-0.5-10.1-1-20.1-1.3-30.2c-0.7-19.2-1.2-38.5-1.8-57.7
	c-0.8-24.4,0.3-48.8-2-73.2c-1.8-19-3.7-37.9-5.6-56.9c-0.1-0.5-1.1-1.3-1.7-1.4c-2.1-0.3-4.3-0.3-6.5-0.4
	c-12.6-0.7-25.2-1.3-37.7,0.5c-13.3,1.8-26.6,1.7-39.9,1.1c-9.5-0.4-19-0.1-28.5,0.1c-10.1,0.1-20.3,0.6-30.4,0.6
	c-5.3,0-10.6-1.3-15.9-1.3c-7.3,0-14.6,0.5-21.9,1.1c-8.9,0.7-17.8,1.5-26.5,4.4c-5.1,1.7-11,1.2-16.6,1.4
	c-21.9,0.7-43.8,1.4-65.7,1.8c-15.9,0.3-31.8,0.4-47.7,0.1c-20.8-0.5-41.6-0.7-62.4,1.5c-10.2,1.1-20.4,2-30.6,2.6
	c-12.7,0.7-25.5,1-38.2,1.5c-8,0.3-15.9,0-23.7-2.1c-2.4-0.7-5.2-1-7.6-0.6c-7.8,1.5-15.6,1.5-23.4,1c-9.1-0.6-18.3-1.5-27.4,0.3
	c-3.6,0.7-7.3,2-10.9,2c-29.2,0-58.5-0.4-87.7-0.5c-4.2,0-8.5,0.4-12.7,0.8c-9.9,0.9-19.8,1.3-29.7,0.3c-5.6-0.6-11.3-0.9-16.9-1.2
	c-3.5-0.1-5.2,1.6-5.5,5.1c-0.1,1,0.1,2,0.2,3c0.4,7.9,1.3,15.8,1,23.7c-0.4,14-1.5,27.9-2.3,41.9c-0.7,12-1.3,24-2.5,35.9
	c-1.1,10.1-3.3,20-4.6,30.1c-1.7,13.1-3.1,26.3-4.3,39.5c-1.6,16.4-3,32.8-4.3,49.3c-1.2,15.9-2.1,31.7-3.3,47.6
	c-1,14-2.2,28.1-3.3,42.1c-0.9,11.3-2.3,22.6-2.6,33.9c-0.6,23-0.7,46-1,69c-0.1,4.7-0.2,9.5-0.5,14.2c-0.5,7.6-1.4,15.2-0.2,22.9
	c3.2,19.7,7.2,39.1,14.3,57.8c5,13.1,11.9,24.4,24.4,31.8c11.4,6.8,23.4,10.8,36.8,9.3c2.7-0.3,5.6-0.4,8.2,0.1
	c22.7,4.9,45.6,7,68.7,6.8c13.7-0.1,27.5-0.7,41.2-0.3c26.5,0.9,52.9,2.4,79.4,3.6c11,0.5,22,1,33,1.1c9.2,0.1,18.5-0.8,27.7-0.7
	c14.3,0.1,28.7,0.8,43,0.9c35.7,0.2,71.3,0.4,107,0.4c34.2,0,68.3-1.4,102.4-3.5c17.3-1.1,34.6-1.3,51.9-2.1
	c9.8-0.5,19.7-0.7,29.4-2.1c20.1-3,40-6.7,60-10.3c4.3-0.8,8.5-2,11.6-5.3c7.3-8,12.1-17.4,14.8-28c2.6-10.3,1.9-20.8,1.8-31.3
	c-0.3-22.6-2.3-45.1-0.8-67.7c1.1-15.7,2.2-31.4,3.2-47.1c0.7-11.3,1.8-22.6,1.6-33.9c-0.3-16.5-1.7-32.9-2.4-49.4
	c-0.7-16.4-1.3-32.8-1.8-49.2C1239.2,504,1239.1,492.5,1238.9,481z M1293.6,713c3.8-0.4,7.6-0.7,11.4-1.4c11.7-2,22.6-6.4,33.1-11.5
	c9.7-4.7,18.7-10.9,28.2-16.1c10.6-5.8,19.2-13.6,26.6-23.1c8.6-11,17.1-22.1,26.3-32.7c8.2-9.5,13.2-20.1,14.6-32.5
	c1-9.1,2.4-18.1,4.7-27c2.8-11.1,1-22-4-32.3c-1.4-2.8-2.6-5.7-3.8-8.7c-5.6-14.7-11.1-29.4-16.8-44c-2.7-6.9-5.2-14.2-9.1-20.4
	c-15.3-24.7-35.4-45.2-58.3-62.8c-11.9-9.1-24.4-17.7-37.4-25.3c-11.5-6.7-24.1-11.7-36.2-17.4c-6.8-3.2-6.8-3-13.4,0.3
	c-6.7,3.4-9.7,8.8-9.3,16.2c0.7,15.1,1.4,30.3,1.9,45.4c0.3,7.9,0.6,15.8-1.4,23.6c-2.7,10.7-2,21,2.1,31.3
	c1.3,3.2,1.6,7.1,1.1,10.5c-1.2,8.1-1.2,16.1,0,24.1c1.8,12.1,4,24.1,3.7,36.5c-0.2,6.1,0.2,12.2,0.5,18.2c0.5,14,1.3,28,1.7,41.9
	c0.5,18.4,0.7,36.8,0.9,55.2c0,4.1,0.1,8.4-0.6,12.4c-0.9,4.7-0.8,9.2,0.8,13.5C1266.9,704,1276.1,713.5,1293.6,713z M1259.5,751.1
	c0.4,3.3,0.9,3.8,4.4,3.1c6.7-1.4,13.3-3,20-4.5c13.2-2.9,26.3-5.9,39.5-8.4c9.7-1.8,19.3-3.3,28.4-7.3c6.1-2.7,12.3-5,18.5-7.5
	c14.2-5.8,28.3-11.9,40.2-21.8c9.4-7.9,19.2-15.1,29.3-22.1c6.5-4.6,12.2-10.1,16.1-17.2c8.6-15.4,16.2-31.4,21.8-48.1
	c2.6-7.9,5.5-16.1,6.1-24.3c1.1-14.2,0.6-28.5,0.6-42.7c0-3.2-0.3-6.3-0.6-9.5c-1-10.4-5.3-19.6-10.4-28.4
	c-7.4-12.8-15.2-25.4-23-38c-5.3-8.6-11.4-16.9-16.3-25.7c-13.7-24.7-29.6-47.8-49.3-68.3c-18.5-19.2-40.5-33.5-63.9-45.8
	c-15.3-8-31.5-13.9-47.6-20c-5.4-2-10.7-4.2-16.1-5.9c-6.4-2-9.3,1-8.5,7.6c0.8,5.8,4.4,9.1,9,11.8c18.3,10.5,36.7,21,55,31.6
	c11.5,6.6,23.4,12.5,34.2,20c19.6,13.6,36.6,30.3,51.9,48.5c13.6,16.1,25.5,33.3,33.1,53.2c8.7,22.7,17.8,45.3,26.7,68
	c0.9,2.3,1.8,4.7,1.8,7.1c0,4.1-0.6,8.1-1.1,12.2c-2.7,20-9,39-16.9,57.5c-1.1,2.6-2.6,5.1-4.3,7.3c-6,7.7-11.6,15.5-16.6,24
	c-3.5,6-7.9,11.6-12.6,16.7c-10.4,11.3-22.4,20.8-36.1,28c-14.9,7.7-29.5,16.1-45.6,21.3c-3.8,1.2-7.6,2.8-10.8,4.9
	c-5.3,3.5-10.9,6.1-16.8,8.2C1286.2,741.3,1272.9,746.2,1259.5,751.1z M1181.1,237.8c0-0.3,0-0.5-0.1-0.8c-12.8-4.4-25.8-7.5-39.4-8
	c-11.7-0.5-23.4-1.2-35.2-1.9c-11.3-0.7-22.6-1.8-33.9-2.1c-13.9-0.4-27.8-0.1-41.7-0.1c-23.7,0-47.3-0.3-71,0
	c-28.8,0.4-57.6,1.3-86.4,2.1c-24.5,0.7-49,1.7-73.4,2.3c-32.5,0.9-65,1.3-97.4,2.5c-19,0.7-37.9,2-56.8,3.7
	c-14.9,1.4-29.7,3.6-44.5,6c-14.1,2.3-28.1,5.5-42.1,8.3c-0.6,0.1-1.1,0.9-1.6,1.4c0.5,0.5,0.9,1.4,1.5,1.5c2.1,0.5,4.2,0.9,6.4,1
	c24.6,0.7,49.3,1.4,74,1.9c14.2,0.3,28.3,0.3,42.5,0.1c5.5-0.1,10.9-1.2,16.4-1.2c7.2-0.1,14.5,0.3,21.7,0.5
	c6.4,0.1,12.7-0.2,18.8-2.2c3.2-1.1,6.1-0.9,9.3-0.3c6.4,1.3,12.9,3.2,19.4,3.2c9.7,0,19.4-1.4,29.1-2.2c11.5-0.9,23-2.1,34.6-2.7
	c8.9-0.4,17.8,0,26.7-0.2c8-0.1,16-0.6,24-0.9c7.2-0.3,14.3-0.9,21.5-0.7c20.8,0.7,41.6,1.8,62.4,2.6c10.9,0.4,21.8,0.2,32.6-1.5
	c8.2-1.3,16.4-3.3,24.6-3.8c15-1,30.1-1.1,45.2-1.6c19.7-0.6,39.5-1.1,59.2-2c12.6-0.6,25.2-2,37.8-3.1
	C1170.4,239.4,1175.8,238.5,1181.1,237.8z M1013.4,861c2.1,0.4,3.5,0.8,4.9,1c2.9,0.3,5.8,0.5,8.7,0.7c12.3,0.9,24.6,2,36.9,2.8
	c21.6,1.4,42.8-2.4,64.2-4.8c12.9-1.4,25.7-2.3,38.6-1.4c4.2,0.3,8.5,0.2,12.7-0.5c5.2-0.8,9.5-3.6,13.1-8.2
	c-59.6,3-118.6,5.9-177.6,8.9C1014.6,859.6,1014.3,860.1,1013.4,861z M846.3,861.7c0,0.3-0.1,0.6-0.1,0.9c37.6,0,75.2,0,112.8,0
	c0-0.3,0-0.6,0-0.9C921.4,858.3,883.8,858.5,846.3,861.7z M1200.7,863.2c2.2,0.3,3.6,0.5,5.1,0.6c5.5,0.4,11,0.6,16.3-1.3
	c7.1-2.6,10.4-10.3,7.4-17.4C1220,851,1210.6,856.9,1200.7,863.2z"/>
<path class="st0" d="M950.2,426.7c1,5,1.8,9.6,3,14.2c0.7,2.5,4.1,4.2,7.7,3.9c4.8-0.4,9.6-1.1,14.4-1.5c10.4-0.8,20.9-1.7,31.4-2.2
	c5.7-0.3,6.5,0.8,7.2,6.5c0.1,0.7,0.1,1.5,0.2,2.2c0.4,3.8-1,5.3-5.5,4.9c-8.5-0.9-17-2.2-25.5-3.2c-1.6-0.2-3.3-0.1-4.9,0.3
	c-8.8,1.9-17.4,4.6-26.3,5.8c-8.4,1.1-15.5,5.4-23.5,7.2c-1.1,0.3-2.3,0.5-3.4,0.7c-5.5,0.8-8.4-2.6-7-7.9c3-11.8,2.3-23.6,2-35.5
	c-0.2-7.9-3.2-14.9-5.5-22.2c-0.2-0.5-0.4-1.1-0.6-1.6c-0.6-2.7-2.6-5.9-0.5-8.1c2.8-3,6.8-5.1,11-4.3c15.6,3,31.3,2.2,47.1,1.3
	c6.5-0.4,13-0.1,19.5-0.2c2.5-0.1,4.9-0.7,7.4-1c1.7-0.2,3.5-0.7,5.2-0.5c4.9,0.4,8.2,3.7,8.2,7.8c-0.1,5.9-3.1,9.6-8.5,9.8
	c-6.1,0.1-12.1-0.2-18.2-0.5c-9.6-0.5-19.3-1.1-28.9-1.7c-4.5-0.2-5.6,0.9-5.8,5.4c-0.3,6.7,1.1,8.1,7.9,8.4
	c9.9,0.4,19.8,0.8,29.7,1.5c2,0.1,4.2,1.1,5.9,2.3c3.6,2.6,3.4,7.4-0.7,9.3c-2.6,1.2-5.8,1.8-8.6,1.6c-8.5-0.7-17-2.1-25.5-3
	C956.1,426,953.4,426.5,950.2,426.7z M943.2,443.2c-0.1-0.7-0.1-1.7-0.3-2.7c-1.4-7.8-2.7-15.5-4.3-23.3c-1-4.7-2.4-9.3-3.7-13.9
	c-0.2-0.6-1.3-1.4-1.8-1.3c-0.6,0.1-1.4,1-1.6,1.7c-0.5,2.2-1.1,4.4-1.2,6.6c-0.3,8.2-0.6,16.5-0.7,24.7c-0.1,3.5,0.3,7,0.5,10.5
	c0.1,1.9,0.6,3.9,2.6,4.8C936.6,451.9,943.1,447.7,943.2,443.2z"/>
<path class="st0" d="M1078.5,424.1c0.8,4.4,1.5,8.5,2.4,12.5c0.9,3.7,3.4,5.7,7.3,5.4c4.7-0.3,9.4-0.9,14.2-1.3
	c10.9-0.8,21.7-1.8,32.6-2.3c5.8-0.2,6.9,1.3,7.1,7c0,0.1,0,0.2,0,0.2c0.6,6.2-1,6.8-6.9,6.2c-8-0.9-16-2.3-24-3.1
	c-2.6-0.3-5.3,0.5-7.8,1c-8,1.7-15.8,4-23.9,5.3c-6.1,1-11.7,3-17.3,5.3c-2.7,1.1-5.6,1.7-8.4,2.3c-6.8,1.4-8.8-3.3-7.6-7.9
	c3.5-13.6,2.7-27.3,1.3-41c-0.6-5.4-3.1-10.6-4.7-16c-0.8-2.6-1.5-5.3-1.8-8c-0.1-1,0.7-2.6,1.6-3.2c3.9-2.7,8.1-4,13.2-2.9
	c9.6,2.1,19.3,2,29.1,1.7c11.2-0.4,22.3-0.6,33.5-1c2.8-0.1,5.6-0.8,8.4-1.2c0.5-0.1,1-0.2,1.5-0.3c5.3-1.1,11.2,1.9,11.4,6.2
	c0.5,7.3-2.5,11.2-9.3,11.4c-5.1,0.2-10.2-0.3-15.2-0.6c-10.1-0.6-20.3-1.2-30.4-1.8c-1.3-0.1-2.7,0.1-3.9,0.4
	c-0.7,0.2-1.7,1-1.8,1.5c-0.2,2.9-0.6,6,0,8.8c0.2,1.1,2.6,2.4,4.1,2.5c7.4,0.6,14.8,0.7,22.2,1.1c3.9,0.2,7.9,0.3,11.7,1.1
	c2.2,0.4,4.6,1.7,6.2,3.3c2.3,2.4,1.4,6.5-1.8,8c-2.6,1.2-5.8,1.9-8.6,1.7c-8.5-0.7-16.8-2.1-25.3-3
	C1084.6,423.4,1081.7,423.9,1078.5,424.1z M1057.6,423.1c0.3,7.1,0.6,13.9,0.9,20.7c0.1,2,1.1,3.5,3.1,4c5.2,1.3,10.6-3.8,9.7-9
	c-1-5.2-1.7-10.5-2.9-15.7c-1.6-7.4-1.8-15.1-5.1-22c-0.4-0.8-1.2-1.3-1.8-2c-0.7,0.8-1.8,1.5-1.9,2.3
	C1058.8,408.8,1058.2,416.1,1057.6,423.1z"/>
<path class="st0" d="M1096.9,521.5c9.3,0,18.6-0.1,28,0.1c2,0,4.1,1.2,6,2c3.4,1.6,6.8,3.4,10.2,5c2.7,1.2,4.6,3,5.7,5.6
	c1.9,4.2,3.7,8.5,5.6,12.8c0.2,0.5,0.4,1.1,0.4,1.7c0,6.9,0.1,13.8-0.1,20.7c-0.2,7-3.3,12.7-8.5,17.2c-7.1,6.3-15,11.7-24.8,10.6
	c-9-1-17.2,2-25.9,2.3c-5.7,0.3-11.5,0.3-17.2,0.4c-2.7,0.1-5.3,0.4-8,0.1c-2.2-0.2-4.4-0.8-6.3-1.8c-2.5-1.4-3-3.5-1.9-6.2
	c2.1-4.9,2-10.1,1.7-15.2c-0.3-6.8-0.6-13.6-0.9-20.4c-0.2-6.4-1.2-12.5-4.2-18.3c-3-5.9-0.8-11.7,5.3-14.1c2.3-0.9,5-1.4,7.5-1.5
	c9.1-0.4,18.1-0.6,27.2-0.8C1096.9,521.7,1096.9,521.6,1096.9,521.5z M1140.7,563c0-4.5-0.6-10.7-3.1-16.5
	c-2.2-5.1-5.8-8.5-11.5-9.1c-1.3-0.1-2.6-0.4-3.9-0.6c-8.3-1.1-16.6-2.4-25-3.4c-5-0.6-6.7,1.2-6.6,6.2c0.1,3.1,0.1,6.1,0.5,9.2
	c1.2,9.2,2.2,18.5,4,27.6c1.2,6.2,5.3,10.7,11.9,11.6c4.6,0.6,9.3,0.6,13.9,0.1C1133.1,586.8,1141.3,576.9,1140.7,563z
	 M1080.4,590.6c0.5-1.6,1-2.5,1-3.4c0.2-5.1,0.6-10.2,0.2-15.2c-1-11.1-2.4-22.2-3.9-33.2c-0.2-1.7-1.7-3.3-2.6-4.9
	c-0.4,0-0.8,0-1.1,0c-1,1.8-2.8,3.6-2.8,5.4c-0.1,6.1,0.2,12.1,0.6,18.2c0.4,6.7,1,13.4,1.7,20.1c0.2,1.9,0.7,3.8,1.6,5.4
	C1076.5,585.5,1078.4,587.7,1080.4,590.6z"/>
<path class="st0" d="M536.8,443.4c0.1-0.9,0-2.5,0.3-4.1c0.6-2.5,0.3-4.8-0.8-7.3c-0.5-1.2-0.4-2.9-0.1-4.2
	c0.8-3.7,1.8-7.2,2.7-10.9c1-4.4,3-8.2,6.1-11.5c3.1-3.3,6.2-6.7,9-10.3c7.2-9.3,17.3-13.5,28.3-16c6.4-1.5,12.9-1.1,19.4-0.3
	c2.7,0.4,4.4,1.9,5.6,4.1c1.3,2.3,0.5,4.2-2.1,4.7c-3.5,0.6-7.1,1-10.6,1.5c-6.3,0.9-10.5,4.4-13.1,10c-9.6,21.3-11.4,43.3-4.4,65.7
	c1.3,4.1,3.4,7.9,5.7,11.6c3.1,5,11.1,6.9,17.4,4.4c2.3-0.9,4.5-2.1,6.9-3c4.7-1.8,9.9,0,12.8,4.1c1.1,1.6,1,3.1,0.2,4.7
	c-1.6,3-3.8,5.4-7.1,6.1c-8.2,1.6-16.5,2.9-24.8,4.2c-0.7,0.1-1.6-0.3-2.4-0.6c-5.8-2.6-11.5-5.2-17.3-7.8c-9-4-15.6-10.7-21.1-18.6
	c-1.9-2.7-3.8-5.5-5.6-8.2C538.3,456.1,536.7,450.6,536.8,443.4z M566.6,402.8c-0.2-0.2-0.4-0.4-0.6-0.5c-1.8,1.3-3.7,2.4-5.4,3.9
	c-5.5,5-8,11.5-9.3,18.6c-1.7,9.9-1.3,19.6,3.2,28.8c1.1,2.3,2.9,4.4,4.3,6.5c0.8-1.1,1.1-1.9,1.1-2.7c0.3-7.1,0.8-14.1,0.7-21.2
	C560.5,424.7,560.7,413.3,566.6,402.8z"/>
<path class="st0" d="M857.3,540.4c-0.5,4.4-0.2,8.4,1.6,12.7c2.3,5.3,3.2,11.3,4.5,17c1.6,6.9,3,13.8,4.7,20.6
	c0.9,3.6,0.4,6.8-1.6,9.7c-2.1,3-5.9,3.7-9.7,2c-3.5-1.6-4.7-3.9-4.1-7.8c1.8-10.9,0.5-21.6-2-32.2c-2.3-9.6-4.8-19.2-6.9-28.8
	c-0.6-2.6-0.2-5.5,0.3-8.1c0.5-2.9,2.2-3.7,5.2-3.2c7.4,1.2,13.6,4.9,19.1,9.8c3.8,3.3,7.3,6.8,10.9,10.2c0.6,0.6,1.3,1,2.4,2
	c0-3.1-0.1-5.6,0-8.1c0.1-2.4,0.1-5,0.9-7.2c0.8-2.5,3.2-3.2,5.8-2.9c2.4,0.3,3.4,2,3.7,4.1c0.8,5.8,1.5,11.5,2.3,17.3
	c0.3,2.3,0.7,4.6,1.1,6.9c0.6,3.4,2.6,6.1,5.1,8.4c5.5,4.8,11,9.7,16.7,14.3c1.8,1.4,4.3,2,6.4,3c2.4-4.3,2.1-8.5,1.9-12.6
	c-0.6-10.7-1.4-21.4-2.5-32.1c-0.2-2.2-2-4.3-3.1-6.4c-2.3-4.1-0.9-7.6,3.7-8.9c3.5-1,6.2,0.8,7.2,4.9c3,12.2,5.4,24.4,5.6,37.1
	c0.2,9.3,1.4,18.4,4.2,27.3c1.6,5.1,0.4,8.6-3.2,11.1c-3.8,2.6-8.2,2.1-10.8-1.7c-3.1-4.5-7.1-7.5-12.3-9.3
	c-2.2-0.8-3.9-2.7-5.7-4.3c-1.8-1.6-3.5-3.3-5.4-4.9c-0.5-0.4-1.3-0.5-2-0.7c0.1,0.6,0.1,1.4,0.4,1.9c1.4,2.5,2.8,4.9,4.3,7.3
	c1.8,3,1.4,4.6-1.6,6.3c-0.9,0.5-1.9,1-2.9,1.5c-3.7,1.5-6.3,0.7-8.6-2.5c-3.6-5.1-4.5-11-5.6-16.9c-3.1-17.6-15.4-27.9-29.5-36.6
	C857.9,540.4,857.7,540.4,857.3,540.4z"/>
<path class="st0" d="M954.7,517.9c6.5,0.4,13,1,19.5,1c10,0,20-0.5,29.9-0.7c3.1-0.1,6.3-0.1,9.4,0.4c3.5,0.6,4.5,2.3,4.5,6.1
	c0,4.1-1.1,6.3-4.6,6.6c-4.1,0.4-8.3,0.1-12.4-0.1c-4.4-0.3-8.8-1.1-13.2-1.3c-6.8-0.4-10.3,2.7-10.9,8.9
	c-0.6,6.9,2.8,11.9,9.2,12.5c3.2,0.3,6.7,0.1,9.8-0.6c4.2-1,8.1-0.4,11.8,1.4c2.7,1.3,4.5,3.7,4.2,5.4c-0.4,1.7-3.2,3.8-5.8,4.1
	c-6.3,0.7-12.6,1.3-18.9,1.9c-4.4,0.4-5.2,1.8-3.3,5.9c2.7,5.7,5.5,11.4,8.3,17.1c1.2,2.4,3.2,3.5,5.9,2.9c8.5-1.9,17-3.8,25.5-6
	c5-1.3,9.6,0.8,10.4,5.2c0.7,4.1-1.5,7.4-5.6,8c-3,0.4-6,0.4-9,0.5c-11.2,0.5-22.5,0.8-33.7,1.6c-3.6,0.3-7.2,1.9-10.7,3.1
	c-4.5,1.5-9.1,2.6-14,1.8c-3-0.5-4.5-1.9-4.2-4.9c1.4-10.4-1.3-20.6-1.8-30.8c-0.4-9.7-1.5-19.4-2.3-29.1c-0.3-3.2-1.7-5.6-4.6-7.2
	c-4.3-2.2-5.5-4.1-4.8-7.1c1.1-4.3,4.4-6.7,8.8-6.6C953.2,517.8,954,517.9,954.7,517.9C954.7,518,954.7,517.9,954.7,517.9z
	 M976.5,583.2c-0.2-0.7-0.4-1.4-0.7-2.1c-4.1-8.4-5.6-17.5-6.9-26.7c-0.8-5.7-2-11.4-3.1-17.1c-0.1-0.7-1.1-1.1-1.6-1.7
	c-0.3,0.7-0.8,1.4-0.8,2.1c0.2,8.5,0.4,17,0.7,25.4c0.4,8.9,3.6,17.2,6.9,25.4c0.3,0.7,1.4,1.5,2.2,1.5c0.7,0,1.7-0.9,2-1.6
	C975.8,586.7,976.1,584.9,976.5,583.2z"/>
<path class="st0" d="M871.7,396c-7.9-0.7-15.8-1.4-23.6-2c-10.3-0.8-9.8,2.1-9.6,8.9c0.1,3.8,0.3,7.7,0.5,11.5
	c0.2,3.1,1.6,4.5,4.7,4.1c4.2-0.6,8.3-1.5,12.5-2.3c3.7-0.7,7.5-0.9,11,0.7c2.9,1.2,3.3,3.2,0.9,5.1c-2.3,1.8-5,3.4-7.7,4.4
	c-4.3,1.6-8.7,2.7-13.1,4.1c-2,0.6-2.5,1.7-2.1,3.9c0.8,4.3,1.4,8.7,1.8,13.1c0.4,4.9-1.4,7.6-6.1,9.3c-1.9,0.7-3.9,1.3-5.9,2
	c-3.1,1.1-4.9,3.3-5.1,6.7c-0.1,0.8-0.3,1.7-0.2,2.5c0.4,3.3-1.9,6-6.2,5.7c-4.7-0.3-9-2.3-12.1-5.7c-1.5-1.6-2.1-4.4-2.2-6.6
	c-1-17.6-1.7-35.3-2.8-52.9c-0.2-3.5-1.2-7-2-10.5c-1.5-6.9,0.7-12.6,5.1-17.7c1.9-2.2,4.6-2.3,6.9-1.6c14.4,4.6,29.1,2,43.7,2
	c6.6,0,13.3,0.1,19.9,0.5c2,0.1,4.2,1.1,6,2.2c3.7,2.4,3.9,7,0.8,10c-2.1,2-4.6,2.9-7.5,2.9c-2.5,0-5,0-7.5,0
	C871.8,396.2,871.7,396.1,871.7,396z M820.7,457.1c6.5-2.8,10.1-8.8,9.4-15.3c-0.3-3.1-0.9-6.1-1.1-9.2c-0.9-11.4-1.7-22.9-2.5-34.3
	c-0.2-3.3-2.3-4.8-5.6-4.4c-3.1,0.4-4.1,1.9-3.5,5.5c0.1,0.5,0.1,1,0.1,1.5c0.3,11.6,0.5,23.3,1.1,34.9
	C819,442.8,820,449.8,820.7,457.1z"/>
<path class="st0" d="M721.5,378.8c9.4,0.4,18.8,1.1,28.2,1.1c5.6,0,11.3-1.1,16.9-1.3c3.7-0.1,7.5,0.1,11.1,0.7
	c4,0.7,6.2,4.6,5.7,8.9c-0.4,3.6-3.2,6-7.5,5.8c-5.4-0.3-10.8-0.9-16.2-1.3c-6-0.4-12-0.9-18-1.1c-5.3-0.1-6.5,1.1-6.3,6.3
	c0.3,7.7,0.8,15.5,1.4,23.2c0.3,4,2,5.6,6,5.4c4-0.2,7.9-1,11.9-1.3c2.6-0.2,5.3-0.4,8-0.1c3.2,0.4,5,2.1,5.1,4.3
	c0.2,2.2-1.8,4.7-4.7,5.5c-3.9,1-8,1.8-11.9,2.6c-2.1,0.4-4.3,0.6-6.4,1.1c-3,0.7-4.1,2.4-3.7,5.5c0.7,5.5,1.4,11,2.1,16.6
	c0.1,1,0.2,2,0.1,3c-0.5,5.1-3,7.3-8.1,6.8c-3.6-0.3-6.6-1.2-9.5-4.1c-2.6-2.7-6.8-4-10.3-5.7c-1.2-0.6-2.6-0.6-3.8-1.1
	c-3.6-1.4-5.1-3.7-4.4-7.4c1.1-5.4,1-10.7,0.1-16.1c-0.1-0.6,0-1.2-0.3-1.7c-3.1-7.6-1.5-15.6-2.2-23.4c-0.3-4.1,0.2-8.4-0.2-12.5
	c-0.2-2.6-1.3-5.2-2.2-7.8c-0.3-0.9-1-1.7-1.4-2.7c-1.1-2.7-0.7-5,1.8-6.2c3.2-1.5,6.6-2.5,10.1-3.2c2.7-0.5,5.5-0.1,8.2-0.1
	C721.5,378.6,721.5,378.7,721.5,378.8z M729.9,455.2c-1.4-21.1-8.7-41.1-6.7-62.7c-2.4,0-4.3-0.1-6.3,0c-3.2,0.2-3.9,1-3.6,4.3
	c0.5,4.5,1.1,9.1,1.7,13.6c1.6,11.5,3.2,23.1,5,34.6C720.9,450.4,725,453.1,729.9,455.2z"/>
<path class="st0" d="M721,595c-4.2-0.3-8.5-0.3-12.7-1c-4.5-0.7-5.4-2-5.6-6.5c-0.1-2.6-0.1-5.2,0.4-7.7c0.3-1.4,1.6-3.1,2.9-3.7
	c4.9-2.3,7.4-5.9,8.1-11.2c1.3-10.7,2.6-21.3,3.8-32c0.7-6,1-12.1,1.5-18.1c0.3-3.4,1.7-5.3,5.1-5.3c6.5-0.1,13.1,0.2,19.6,0.8
	c3.2,0.3,5.2,2.7,6.6,5.6c9.9,19.8,19.8,39.7,29.8,59.5c0.8,1.6,1.6,3.1,2.4,4.7c1,2.2,0.5,4-1.3,5.6c-3.6,3-8.8,3.1-12.4,0.2
	c-1.8-1.5-2.8-3.4-2.4-5.7c0.6-4-0.3-7.6-2-11.1c-1.6-3.3-3.5-6.4-5.2-9.7c-0.8-1.6-2.1-2.1-3.7-1.8c-4.6,0.9-9.2,1.7-13.6,3
	c-4.5,1.2-6.3,4-6.1,8.8c0.3,5.8,0.6,11.6,0.8,17.5c0,1.1,0.1,2.2-0.1,3.2c-0.4,3.2-1.6,4.5-4.9,4.6c-3.7,0.2-7.3,0-11,0
	C721,594.7,721,594.8,721,595z M743.7,549.6c1.5-0.3,4.2-0.8,6.8-1.5c2.2-0.6,3.1-2.6,2.1-4.6c-1.9-3.4-3.9-6.7-6-10
	c-1-1.6-2.3-1.5-3,0.3c-1.5,3.9-3,7.9-4.3,11.9C738.5,547.9,740.1,549.7,743.7,549.6z M729.9,530.3c-0.3,0.2-0.6,0.3-0.8,0.5
	c-1.3,7-2.6,14-4,21.1c1.2,0.2,2.1,0.4,3.3,0.7c0.9-6.9,1.9-13.6,2.7-20.4C731.2,531.6,730.3,530.9,729.9,530.3z M722.9,569
	c-0.4,5-0.8,10-1.3,15.2C726.3,580.3,727.1,570.8,722.9,569z"/>
<path class="st0" d="M668.4,645.5c10.7,0.1,20,1.9,28.7,6.2c2.6,1.3,5.4,2.2,8.1,3.3c4.2,1.7,5.6,3.7,4.9,8
	c-0.7,4.3-0.4,8.4,0.4,12.6c2.5,13-4.9,24.9-17.9,28.1c-10,2.5-20.3,2-29.8-2.3c-10.8-4.9-16.4-13.7-17.5-25.4
	c-0.1-0.7-0.1-1.5,0.2-2.2c3-7.7,6.2-15.4,9-23.2c1.1-3.2,3-4.5,6.2-4.7C663.5,645.9,666.5,645.6,668.4,645.5z M663.1,686.9
	c1.5,4.1,3.7,7,7.7,7.6c4.8,0.6,9.6,1.1,14.4,1c4.1-0.1,7.4-2.2,9.9-6.1C684.4,688.5,674,687.7,663.1,686.9z M671.5,673.5
	c3,6,9.4,6.1,18.1,2C683.5,674.8,677.6,674.1,671.5,673.5z M686.7,661.8c0.2-0.3,0.4-0.6,0.6-0.9c-0.5-0.5-1-1.2-1.6-1.5
	c-1.6-0.7-3.2-1.3-4.9-1.7c-1-0.2-2.1-0.1-3.1-0.1c0.4,1.2,0.7,2.5,1.4,3.5c0.3,0.5,1.3,0.6,2,0.7
	C682.9,661.9,684.8,661.8,686.7,661.8z"/>
<path class="st0" d="M652.6,580.9c-0.8-8.5-1-17-2.4-25.3c-1.2-7.3-3-14.5-2.7-22c0.1-3.2,0.4-6.5,0.6-9.7c0.3-3.7-0.8-5.1-4.3-4.2
	c-4.8,1.3-8-1.2-11.3-3.7c-1.6-1.2-1.8-2.7-0.9-4.4c1.3-2.4,3.1-4.3,5.9-5c4.2-1.2,8.2-1.4,12.5,0.3c6.8,2.6,13.9,1.9,21,1.1
	c3.2-0.4,6.4-0.9,9.7-1.1c6.1-0.4,11.5,1.6,16.1,5.6c1.1,0.9,2,3,1.7,4.2c-0.4,1.3-2.1,3-3.5,3.3c-5,1-10.2,1.6-15.3,2
	c-4.4,0.4-4.8,0.4-5.2,4.8c-0.4,4.6-1.2,9.3-1.2,13.9c0,3.4,1.2,6.8,1.8,10.3c1.6,9.3,3.3,18.7,4.9,28c0.3,1.7,0.8,3.4,1.4,5
	c2.5,7-0.1,12-7.3,13.4c-4.8,0.9-9.7,1.4-14.6,1.7c-4.6,0.3-7.2-2.3-7.4-6.8c-0.1-3.7,0-7.5,0-11.2
	C652.2,580.9,652.4,580.9,652.6,580.9z M663.4,558.4c-0.3,0.1-0.6,0.2-0.9,0.3c0.2,2.7,0.4,5.4,0.6,8.2c0.4,5.1,0.7,10.3,1.1,15.4
	c0.1,0.6,0.6,1.2,1,1.7c0.5-0.5,1.3-0.9,1.4-1.4c0.4-1.2,0.6-2.5,0.5-3.6c-0.8-6.3-1.8-12.5-2.8-18.7
	C664.1,559.6,663.7,559,663.4,558.4z M661.4,526.2c-3.6,6.5-3.5,15.3,0,19.7C661.4,539.4,661.4,533,661.4,526.2z"/>
<path class="st0" d="M595.3,673c8.7,0.1,16.6,2.3,23.4,7.9c2.5,2.1,4.4,4.8,5.1,8.1c1.1,5.7,2.5,11.4,3.2,17.1
	c0.5,4.2-0.9,8.2-3.2,11.8c-2,3.1-3.9,6.4-6,9.5c-2.3,3.5-5.5,5.8-9.7,6.5c-6,1.1-11.9,2-17.9,2.9c-0.8,0.1-1.8-0.3-2.4-0.8
	c-6.1-4.7-12.3-9.4-18.2-14.4c-1.9-1.6-3.5-3.8-4.4-6.1c-1.4-3.6,1.3-7.1,5.5-8.2c3.7-0.9,6.5,0.8,7.4,4.7
	c2.3,9.2,13.4,15.8,22.3,13.5c3-0.8,5.7-2.2,7.2-5c2.1-3.8,4.7-7.6,5.8-11.8c3.2-12.1-4.3-21.4-17.4-22.7c-4.7-0.5-9.5-1-14.1-2
	c-11.4-2.5-17.3-13.2-15-22.6c1.6-6.3,2.5-12.7,4.3-18.9c0.9-2.9,2.8-5.7,4.9-7.9c3.6-3.8,7.4-7.5,11.8-10.3c3-1.8,7.1-1.8,10.7-2.7
	c2.5-0.6,4.5,0,6.5,1.9c3.6,3.5,7.7,6.6,11.4,10.1c4.1,3.9,3,9.1-2.1,10.9c-2.5,0.9-5.5-0.5-8-3.4c-1.5-1.7-3.1-3.5-5-4.8
	c-4.6-3.1-10-2.2-13.2,2.4c-4.9,7.1-7.3,15.1-7.9,23.6c-0.3,5.7,5,10.1,11.8,10.6C593.1,673,594.2,673,595.3,673z"/>
<path class="st0" d="M587.4,551.6c8.8,0,16.8,2.2,23.5,8.1c2.4,2.1,4.1,4.8,4.8,8c1,4.6,2.2,9.2,3,13.9c0.9,5.3-0.2,10.3-3.1,14.8
	c-2,3.1-3.8,6.2-5.8,9.3c-2.3,3.6-5.6,5.9-9.8,6.8c-5.4,1-10.8,1.9-16.2,2.9c-1.9,0.3-3.5,0-5.1-1.3c-5.6-4.6-11.4-8.9-17-13.5
	c-1.9-1.6-3.7-3.7-4.7-6c-1.6-3.6,0.8-7.3,4.9-8.6c3.9-1.2,6.9,0.5,7.9,4.6c2.5,9.6,13.7,16.2,22.7,13.3c2.4-0.8,4.7-2.5,6.4-4.4
	c3.2-3.7,5.5-8,6.4-12.8c2.4-12.2-4.7-20.8-17.9-22.1c-4.7-0.5-9.5-1-14.1-2.1c-8.6-2-14.9-8.9-15.1-17.1c-0.1-4.7,1.1-9.4,1.8-14.1
	c0.3-1.9,0.8-3.7,1.2-5.6c1.4-6.3,4.5-11.6,9.5-15.7c0.5-0.4,1-0.8,1.5-1.4c5.3-6.8,12.8-8.5,20.8-8.8c0.7,0,1.5,0.3,2,0.7
	c4.4,3.8,9,7.5,13.2,11.5c4.2,4.1,2.9,9.7-2.5,11.1c-3.5,0.9-5.5-1.5-7.7-3.6c-1.5-1.5-2.9-3.3-4.6-4.5c-4.9-3.3-10.5-2.3-13.8,2.6
	c-4.6,6.9-6.9,14.8-7.6,23c-0.4,5.6,4.4,10.1,11.2,10.9C584.7,551.6,586.1,551.6,587.4,551.6z"/>
<path class="st0" d="M656.7,434c-3.7-0.7-8.7-1-13.3-2.7c-12.3-4.4-19-13.5-20.3-26.5c-0.1-0.7,0-1.5,0.2-2.2
	c3-7.6,6.1-15.2,8.9-22.9c1.2-3.3,3.2-4.5,6.6-4.9c13.5-1.4,26.4,0.3,38.5,6.8c2.2,1.2,4.7,1.7,6.9,2.8c3.2,1.4,4.3,3.3,3.8,6.7
	c-0.7,4.6-0.4,9,0.4,13.6c2.5,14.4-7,26.9-21.6,28.7C663.8,433.8,660.8,433.8,656.7,434z M658.7,404.2
	C658.7,404.3,658.7,404.3,658.7,404.2c6.1,0.1,12.3,0,18.4,0.1c2,0,2.4-0.9,2.4-2.6c0-1.8-0.7-2.2-2.4-2.3
	c-7.7-0.2-15.4-0.6-23.2-0.9c-5.4-0.2-10.8-0.4-16.2-0.5c-0.9,0-2.7,0.9-2.7,1.4c0.1,1.3,0.5,3,1.4,3.8c0.8,0.8,2.5,0.9,3.7,0.9
	C646.4,404.3,652.5,404.2,658.7,404.2z M641.5,411.8c0.1,4.1,1.3,5.7,4.8,6.9c7.3,2.4,14.6,1.6,21.8-0.7c2-0.7,3.3-2.4,3.6-5.4
	C661.6,412.3,651.6,412.1,641.5,411.8z M656.7,385.7c-1.3-1.8-3.1-2-4.9-1.6c-0.7,0.1-1.3,0.8-1.9,1.3c0.6,0.7,1.1,1.8,1.8,2
	C653.5,387.8,655.3,387.4,656.7,385.7z"/>
<path class="st0" d="M870.5,709.5c12.8,1.4,25.6-0.4,38.4-1c3.3-0.1,4.1,0.5,5.3,3.7c0.8,2.1,0,3.8-1.2,5.3c-2.5,3.2-8.4,5.7-13,3.8
	c-7.7-3.1-15.4-1.8-23,0.6c-3,0.9-6.1,1.8-9,3c-2.3,1-4.6,0.7-6.4-0.5c-4.9-3.4-9.8-3-14.9-0.9c-3.7,1.5-7.1,3.5-11.4,3.2
	c-4.4-0.3-5.9-1.3-6.1-5.7c-0.2-3.4-0.1-6.9,0.6-10.2c2.3-9.7,1.7-19.5,1-29.3c-0.4-5.4-1.5-10.5-3.4-15.5c-1.8-4.7-0.4-7.7,4-10.1
	c1.3-0.7,2.6-1.5,3.8-2.4c3.6-2.7,7.7-3.1,11.9-2.2c3.5,0.8,6.9,1.9,10.3,3c3.7,1.2,5.1,4.2,3.5,7.7c-4.5,10-4.6,20.3-2.8,30.8
	c0.6,3.4,0.7,7,1,10.4c0.5,4.8,2.2,6.4,7.1,6.3C867.7,709.4,869.1,709.5,870.5,709.5z M844.2,666.5c-2.8,2.2-4.2,4.5-3.6,7.7
	c0.4,2,0.3,4.1,0.4,6.2c0.5,8.9,1,17.8,1.6,26.7c0.1,0.9,0.5,1.7,0.8,2.6c0.3-0.1,0.6-0.1,1-0.2c0.2-1.8,0.6-3.5,0.7-5.3
	c0.2-10.5,0.5-21,0.5-31.5C845.6,670.7,844.8,668.7,844.2,666.5z"/>
<path class="st0" d="M743.1,668.1c-0.8,6.2,1,12.1,2.5,17.9c1.3,5.2,2.9,10.4,4.6,15.6c2.1,6.5,6.4,9.4,13.1,8.2
	c3.6-0.6,7.2-2,10.5-3.7c5-2.6,6.4-6.6,5.7-12.2c-0.4-2.9,0-5.9-0.1-8.9c0-1.7-0.2-3.5-0.4-5.2c-0.3-3.7-0.4-7.3-0.8-11
	c-0.6-6.2,1.7-9.9,7.7-11.6c3.1-0.9,6.2-1.7,9.4-2.5c7-1.6,11.9,2.4,11.7,9.6c-0.1,2.1-0.5,4.1-0.6,6.2c-0.1,2.5-0.3,5,0.1,7.4
	c0.7,4.2-0.1,8.1-1.2,12c-1.4,4.7-2,9.4-1.5,14.3c0.2,2.4,0.1,4.8-0.2,7.2c-0.6,3.7-2.9,5.7-6.6,5.5c-4.5-0.2-8.9-1.1-13.4-1.6
	c-6.3-0.7-12.3,0.4-18,2.9c-3.6,1.6-7.3,3-11.3,2.5c-7.9-0.9-13.2-5.4-15.2-12.9c-3.1-11.5-5.7-23.2-8.3-34.9
	c-0.6-2.9-0.7-6-0.8-8.9c-0.2-3.8,2.3-6.6,6.1-7.1c5-0.6,7.2,1.4,7.2,6.4C743.3,665,743.2,666.5,743.1,668.1z M791.7,693
	c5.8-4.6,4.9-21.9-1.8-24.7C790.5,676.5,791.1,684.6,791.7,693z"/>
<path class="st0" d="M780.4,511.8c10.8,0.4,21.6,0.8,32.4,1.2c0.8,0,1.7,0.2,2.5,0.4c5.2,1,7.1,3.4,5.7,8.4
	c-2.1,7.4-1.4,14.6,0.7,21.9c1.5,5.4,2.9,10.9,4.4,16.4c1.7,6.2,4.5,11.9,7.6,17.5c3.3,6,2.5,7.2-3.9,10.1c-2.6,1.2-5,0.7-7.2-0.1
	c-4.9-1.8-9.3-0.8-13.7,1.3c-1.9,0.9-3.9,1.6-5.9,2c-4.9,1-9.2-2.3-9.6-7.3c-0.1-1.9,0.2-3.8,0.5-5.7c1.5-7.5,0.7-14.9-0.6-22.3
	c-1.3-7.2-2.5-14.4-3.8-21.6c-1.1-5.9-4.4-8.9-10.3-10c-1.8-0.3-3.6-0.7-5.2-1.5c-4.1-2-4.5-6.7-0.6-9.2c2-1.3,4.6-1.7,6.9-2.5
	C780.3,511.2,780.3,511.5,780.4,511.8z M804.8,525.5c-4.3,0-4.8,0.5-4.2,4.8c0.2,1.4,0.3,2.8,0.4,4.2c0.4,5.9,0.4,11.9,1.3,17.8
	c1,6.7,2.6,13.4,4,20c1,4.7,3.6,5.9,9.4,4.7c3.8-0.8,5.3-3.1,4.4-7.5c-2.7-13.1-5.5-26.2-8.4-39.2
	C810.8,526.5,809.4,525.6,804.8,525.5z"/>
</svg>
